<svg xmlns="http://www.w3.org/2000/svg" xmlns:xlink="http://www.w3.org/1999/xlink" viewBox="0 0 1337.21 2279.41">
  <defs>
    <style>
      .cls-1, .cls-8, .cls-9 {
        fill: none;
      }

      .cls-11, .cls-2 {
        fill: #fff;
      }

      .cls-3 {
        clip-path: url(#clip-path);
      }

      .cls-4 {
        opacity: 0.75;
      }

      .cls-4, .cls-7 {
        isolation: isolate;
      }

      .cls-12, .cls-5 {
        fill: #212121;
      }

      .cls-6 {
        fill: #2caf35;
      }

      .cls-7 {
        fill: #d32f2f;
        opacity: 0.54;
      }

      .cls-8 {
        stroke: #212121;
      }

      .cls-11, .cls-8, .cls-9 {
        stroke-miterlimit: 10;
      }

      .cls-8, .cls-9 {
        stroke-width: 1.5px;
      }

      .cls-9 {
        stroke: #fff;
      }

      .cls-10 {
        fill: #f9f7f7;
      }

      .cls-11 {
        stroke: #fffdfd;
      }

      .cls-12 {
        font-size: 73px;
        font-family: ArialRoundedMTBold, Arial Rounded MT Bold;
      }
      .cls-mia{
        stroke: #fff;
        fill: #fff;
        font-size: 73px;
        font-family: ArialRoundedMTBold, Arial Rounded MT Bold;

      }
    </style>
    <clipPath id="clip-path" transform="translate(291.96 1129.02)">
      <rect class="cls-1" y="2" width="939.64" height="646.08"/>
    </clipPath>
  </defs>
  <g id="Capa_1" data-name="Capa 1">
    <g id="OBJECTS">
      <g>
        <g>
          <rect class="cls-2" x="291.96" y="1131.02" width="939.64" height="646.08"/>
          <g class="cls-3">
            <g>
              <g>
                <image class="cls-4" width="840" height="1161" transform="translate(282.22 423.5) scale(0.69 1.44)" xlink:href="banner-new1.png"/>
                <path class="cls-5" d="M185.46,874,6.14,107.69C-2.56,70.54.37,26.1,13.55-4.78L285.72-648.21c24.11-57,69.09-44.76,85,23.14L550,141.23c8.69,37.16,5.77,81.59-7.41,112.48L270.45,897.14C246.3,954.14,201.35,941.9,185.46,874Z" transform="translate(291.96 1129.02)"/>
              </g>
              <path class="cls-5" d="M158.11,616.9-21.21-149.42C-29.9-186.57-27-231-13.8-261.89L258.37-905.32c24.11-57,69.1-44.76,85,23.14l179.32,766.3c8.7,37.16,5.77,81.59-7.41,112.48L243.1,640C219,697,174,684.79,158.11,616.9Z" transform="translate(291.96 1129.02)"/>
              <g>
                <image class="cls-4" width="828" height="1150" transform="translate(177.35 622.07) scale(0.69 1.44)" xlink:href="banner-new2.png"/>
                <path class="cls-6" d="M76.09,1065.6-103.23,299.28c-8.69-37.16-5.76-81.59,7.41-112.48L176.35-456.62c24.11-57,69.1-44.76,85,23.13L440.66,332.82c8.7,37.16,5.78,81.58-7.39,112.49L161.08,1088.72C137,1145.73,92,1133.49,76.09,1065.6Z" transform="translate(291.96 1129.02)"/>
              </g>
              <path class="cls-7" d="M-107.7,429.36-287-336.91c-8.69-37.16-5.77-81.59,7.41-112.48L-7.43-1092.82c24.15-57,69.09-44.76,85,23.13L256.86-303.37c8.7,37.15,5.78,81.59-7.41,112.47L-22.71,452.53C-46.82,509.54-91.81,497.29-107.7,429.36Z" transform="translate(291.96 1129.02)"/>
              <path class="cls-8" d="M22.48,906l-179.31-766.3c-8.7-37.15-5.78-81.59,7.4-112.48L122.74-616.19c24.14-57,69.1-44.77,85,23.13L387,173.23c8.7,37.16,5.77,81.59-7.41,112.48L107.47,929.16C83.36,986.23,38.37,973.93,22.48,906Z" transform="translate(291.96 1129.02)"/>
              <path class="cls-9" d="M241.54-431.9c24.11-57,69.1-44.76,85,23.13L505.84,357.55c8.7,37.15,5.77,81.59-7.41,112.48L226.29,1113.44c-24.14,57-69.12,44.77-85-23.12" transform="translate(291.96 1129.02)"/>
            </g>
          </g>
        </g>
        <ellipse class="cls-5" cx="1128.96" cy="1684.64" rx="92.52" ry="82.08"/>
      </g>
      <path class="cls-10" d="M880.58,572.43H818.92l1.37,6.73h56.46a5.07,5.07,0,0,1,4.93,6.17l-1.17,5.1a11.78,11.78,0,1,1-13.37,2.19H823a11.78,11.78,0,1,1-16.66.18,12,12,0,0,1,2.56-2l-14.78-72.24h-14.7a5,5,0,0,1-5.05-5v-3.46a5,5,0,0,1,5-5.05H801a5,5,0,0,1,4.94,4l1.93,9.43h82.62a5,5,0,0,1,5.06,4.94,5.1,5.1,0,0,1-.14,1.23l-9.94,43.75A5,5,0,0,1,880.58,572.43Zm-20.35-32H850.14V532a3.35,3.35,0,0,0-3.36-3.36h-3.37A3.35,3.35,0,0,0,840,532h0v8.42h-10.1a3.35,3.35,0,0,0-3.36,3.36v3.37a3.35,3.35,0,0,0,3.36,3.36H840v8.42a3.35,3.35,0,0,0,3.36,3.36h3.37a3.35,3.35,0,0,0,3.37-3.35h0v-8.42h10.09a3.35,3.35,0,0,0,3.37-3.35h0v-3.37a3.36,3.36,0,0,0-3.37-3.33Z" transform="translate(291.96 1129.02)"/>
    </g>
  </g>


  <g id="TEXTO-PRINCIPAL">
   <g>
    <text class="cls-mia" transform="translate(290.64 1252.83)">HASTA 30% OFF</text>
  </g>
  </g>

  <g id="TEXTO-COMPRAR">
    <text class="cls-12" transform="translate(331.64 1552.83)">COMPRAR</text>
  </g>
  <g id="IMG">
    <image width="857" height="455" transform="translate(807.14 1475.26) rotate(-45) scale(0.57)" xlink:href="../img/pipa/p-curvavidrio.png"/>
  </g>
</svg>
