<svg xmlns="http://www.w3.org/2000/svg" xmlns:xlink="http://www.w3.org/1999/xlink" viewBox="0 0 939.64 646.08">
  <defs>
    <style>
      .cls-1, .cls-8, .cls-9 {
        fill: none;
      }

      .cls-11, .cls-2 {
        fill: #fff;
      }

      .cls-3 {
        clip-path: url(#clip-path);
      }

      .cls-4 {
        opacity: 0.75;
      }

      .cls-4, .cls-7 {
        isolation: isolate;
      }

      .cls-12, .cls-5 {
        fill: #212121;
      }

      .cls-6 {
        fill: #2caf35;
      }

      .cls-7 {
        fill: #d32f2f;
        opacity: 0.54;
      }

      .cls-8 {
        stroke: #212121;
      }

      .cls-11, .cls-8, .cls-9 {
        stroke-miterlimit: 10;
      }

      .cls-8, .cls-9 {
        stroke-width: 1.5px;
      }

      .cls-9 {
        stroke: #fff;
      }

      .cls-10 {
        fill: #f9f7f7;
      }

      .cls-11 {
        stroke: #fffdfd;
      }

      .cls-12 {
        font-size: 73px;
        font-family: ArialRoundedMTBold, Arial Rounded MT Bold;
      }
    </style>
    <clipPath id="clip-path">
      <rect class="cls-1" y="2" width="939.64" height="646.08"/>
    </clipPath>
  </defs>
  <g id="Capa_1" data-name="Capa 1">
    <g id="OBJECTS">
      <g>
        <g>
          <rect class="cls-2" y="2" width="939.64" height="646.08"/>
          <g class="cls-3">
            <g>
              <g>
                <image class="cls-4" width="840" height="1161" transform="translate(-9.74 -705.52) scale(0.69 1.44)" xlink:href="banner-new1.png"/>
                <path class="cls-5" d="M185.46,874,6.14,107.69C-2.56,70.54.37,26.1,13.55-4.78L285.72-648.21c24.11-57,69.09-44.76,85,23.14L550,141.23c8.69,37.16,5.77,81.59-7.41,112.48L270.45,897.14C246.3,954.14,201.35,941.9,185.46,874Z"/>
              </g>
              <path class="cls-5" d="M158.11,616.9-21.21-149.42C-29.9-186.57-27-231-13.8-261.89L258.37-905.32c24.11-57,69.1-44.76,85,23.14l179.32,766.3c8.7,37.16,5.77,81.59-7.41,112.48L243.1,640C219,697,174,684.79,158.11,616.9Z"/>
              <g>
                <image class="cls-4" width="828" height="1150" transform="translate(-114.61 -506.95) scale(0.69 1.44)" xlink:href="banner-new2.png"/>
                <path class="cls-6" d="M76.09,1065.6-103.23,299.28c-8.69-37.16-5.76-81.59,7.41-112.48L176.35-456.62c24.11-57,69.1-44.76,85,23.13L440.66,332.82c8.7,37.16,5.78,81.58-7.39,112.49L161.08,1088.72C137,1145.73,92,1133.49,76.09,1065.6Z"/>
              </g>
              <path class="cls-7" d="M-107.7,429.36-287-336.91c-8.69-37.16-5.77-81.59,7.41-112.48L-7.43-1092.82c24.15-57,69.09-44.76,85,23.13L256.86-303.37c8.7,37.15,5.78,81.59-7.41,112.47L-22.71,452.53C-46.82,509.54-91.81,497.29-107.7,429.36Z"/>
              <path class="cls-8" d="M22.48,906l-179.31-766.3c-8.7-37.15-5.78-81.59,7.4-112.48L122.74-616.19c24.14-57,69.1-44.77,85,23.13L387,173.23c8.7,37.16,5.77,81.59-7.41,112.48L107.47,929.16C83.36,986.23,38.37,973.93,22.48,906Z"/>
              <path class="cls-9" d="M241.54-431.9c24.11-57,69.1-44.76,85,23.13L505.84,357.55c8.7,37.15,5.77,81.59-7.41,112.48L226.29,1113.44c-24.14,57-69.12,44.77-85-23.12"/>
            </g>
          </g>
        </g>
        <ellipse class="cls-5" cx="837" cy="555.62" rx="92.52" ry="82.08"/>
      </g>
      <path class="cls-10" d="M880.58,572.43H818.92l1.37,6.73h56.46a5.07,5.07,0,0,1,4.93,6.17l-1.17,5.1a11.78,11.78,0,1,1-13.37,2.19H823a11.78,11.78,0,1,1-16.66.18,12,12,0,0,1,2.56-2l-14.78-72.24h-14.7a5,5,0,0,1-5.05-5v-3.46a5,5,0,0,1,5-5.05H801a5,5,0,0,1,4.94,4l1.93,9.43h82.62a5,5,0,0,1,5.06,4.94,5.1,5.1,0,0,1-.14,1.23l-9.94,43.75A5,5,0,0,1,880.58,572.43Zm-20.35-32H850.14V532a3.35,3.35,0,0,0-3.36-3.36h-3.37A3.35,3.35,0,0,0,840,532h0v8.42h-10.1a3.35,3.35,0,0,0-3.36,3.36v3.37a3.35,3.35,0,0,0,3.36,3.36H840v8.42a3.35,3.35,0,0,0,3.36,3.36h3.37a3.35,3.35,0,0,0,3.37-3.35h0v-8.42h10.09a3.35,3.35,0,0,0,3.37-3.35h0v-3.37a3.36,3.36,0,0,0-3.37-3.33Z"/>
    </g>
  </g>
  <g id="TEXTO-PRINCIPAL">
    <g>
      <path class="cls-11" d="M33.58,85.4v15H56.43v-15a7,7,0,0,1,1.44-4.81A4.88,4.88,0,0,1,61.67,79a5.05,5.05,0,0,1,3.87,1.59A6.91,6.91,0,0,1,67,85.4v41.17a6.89,6.89,0,0,1-1.5,4.85,5,5,0,0,1-3.85,1.6,4.86,4.86,0,0,1-3.82-1.62,7.13,7.13,0,0,1-1.42-4.83V109H33.58v17.57a6.89,6.89,0,0,1-1.5,4.85,5,5,0,0,1-3.85,1.6,4.82,4.82,0,0,1-3.81-1.62A7.13,7.13,0,0,1,23,126.57V85.4a7.1,7.1,0,0,1,1.41-4.81A4.85,4.85,0,0,1,28.23,79a5,5,0,0,1,3.87,1.59A6.86,6.86,0,0,1,33.58,85.4Z"/>
      <path class="cls-11" d="M111.82,126.21l-2.49-6.56H88.08l-2.49,6.71a23.79,23.79,0,0,1-2.5,5.29A4,4,0,0,1,79.71,133a5,5,0,0,1-3.53-1.46,4.45,4.45,0,0,1-1.54-3.31A7.29,7.29,0,0,1,75,126c.24-.77.63-1.82,1.18-3.18L89.54,88.93l1.38-3.51A17.42,17.42,0,0,1,92.63,82,7,7,0,0,1,95,79.82a8.46,8.46,0,0,1,7.35,0A7.21,7.21,0,0,1,104.75,82a15.71,15.71,0,0,1,1.53,2.83c.41,1,.94,2.36,1.58,4l13.66,33.72a16.86,16.86,0,0,1,1.6,5.59,4.64,4.64,0,0,1-1.52,3.34A5,5,0,0,1,118,133a4.86,4.86,0,0,1-2.14-.44,4.31,4.31,0,0,1-1.49-1.22A10.63,10.63,0,0,1,113,129C112.55,128,112.15,127,111.82,126.21Zm-21-14.5h15.61L98.6,90.14Z"/>
      <path class="cls-11" d="M170.6,116.45a15.42,15.42,0,0,1-2.44,8.52,16.23,16.23,0,0,1-7.15,5.91A26.74,26.74,0,0,1,149.85,133q-7.72,0-12.76-2.92a17,17,0,0,1-5.79-5.62,12.69,12.69,0,0,1-2.23-6.82,4.63,4.63,0,0,1,4.74-4.67,4.06,4.06,0,0,1,2.84,1.07,8.46,8.46,0,0,1,2,3.17,21.22,21.22,0,0,0,2.15,4.17,8.66,8.66,0,0,0,3.26,2.76,12,12,0,0,0,5.53,1.09,12.45,12.45,0,0,0,7.64-2.19,6.6,6.6,0,0,0,2.94-5.47,5.79,5.79,0,0,0-1.58-4.23,10.29,10.29,0,0,0-4.1-2.47q-2.52-.86-6.72-1.82a49.17,49.17,0,0,1-9.43-3.09,15.15,15.15,0,0,1-6-4.81,12.44,12.44,0,0,1-2.23-7.57,13,13,0,0,1,2.35-7.66,14.82,14.82,0,0,1,6.81-5.16A27.87,27.87,0,0,1,149.71,79a25.77,25.77,0,0,1,8.32,1.2,17.61,17.61,0,0,1,5.83,3.17,13.15,13.15,0,0,1,3.39,4.15,9.65,9.65,0,0,1,1.07,4.25,5,5,0,0,1-1.34,3.4,4.25,4.25,0,0,1-3.33,1.51,3.84,3.84,0,0,1-2.76-.9,12.13,12.13,0,0,1-2-3,13.6,13.6,0,0,0-3.43-4.62q-2-1.65-6.41-1.65a11.1,11.1,0,0,0-6.61,1.8,5.23,5.23,0,0,0-2.52,4.33,4.43,4.43,0,0,0,.86,2.71,7.21,7.21,0,0,0,2.35,2,16.46,16.46,0,0,0,3,1.28q1.53.47,5.06,1.35a79.19,79.19,0,0,1,8,2.28,25,25,0,0,1,6.1,3,12.51,12.51,0,0,1,3.92,4.51A14.45,14.45,0,0,1,170.6,116.45Z"/>
      <path class="cls-11" d="M213.51,88.61H202v38a7,7,0,0,1-1.47,4.87,4.91,4.91,0,0,1-3.77,1.58,5,5,0,0,1-3.84-1.6,7,7,0,0,1-1.47-4.85v-38H179.87a5.83,5.83,0,0,1-4-1.2,4.43,4.43,0,0,1,0-6.36,6,6,0,0,1,4-1.17h33.64a5.93,5.93,0,0,1,4.09,1.21,4.07,4.07,0,0,1,1.33,3.17,4,4,0,0,1-1.35,3.15A6,6,0,0,1,213.51,88.61Z"/>
      <path class="cls-11" d="M254,126.21l-2.49-6.56H230.3l-2.49,6.71a23.79,23.79,0,0,1-2.5,5.29,4,4,0,0,1-3.38,1.37,5,5,0,0,1-3.53-1.46,4.47,4.47,0,0,1-1.53-3.31,7.27,7.27,0,0,1,.35-2.21c.24-.77.63-1.82,1.18-3.18l13.36-33.93,1.38-3.51A17.42,17.42,0,0,1,234.85,82a6.91,6.91,0,0,1,2.39-2.19,7.27,7.27,0,0,1,3.65-.84,7.41,7.41,0,0,1,3.69.84A7.21,7.21,0,0,1,247,82a15.71,15.71,0,0,1,1.53,2.83c.42,1,.94,2.36,1.59,4l13.65,33.72a16.86,16.86,0,0,1,1.6,5.59,4.63,4.63,0,0,1-1.51,3.34,5,5,0,0,1-3.66,1.51,4.86,4.86,0,0,1-2.14-.44,4.31,4.31,0,0,1-1.49-1.22,10.63,10.63,0,0,1-1.3-2.35C254.77,128,254.38,127,254,126.21Zm-21-14.5H248.7l-7.88-21.57Z"/>
      <path class="cls-11" d="M305.66,100.58a8.73,8.73,0,0,0,5.65-1.92,6.69,6.69,0,0,0,2.37-5.52,6.62,6.62,0,0,0-1.89-4.73,6.72,6.72,0,0,0-5.1-2,9.18,9.18,0,0,0-3.58.61,5.8,5.8,0,0,0-2.23,1.6,12.37,12.37,0,0,0-1.55,2.57c-.49,1.05-.93,2-1.34,3a2.52,2.52,0,0,1-1.28,1.18,5.14,5.14,0,0,1-2.14.42A3.67,3.67,0,0,1,292,94.61a4.08,4.08,0,0,1-1.19-3.08,8.14,8.14,0,0,1,1.12-3.9,14.08,14.08,0,0,1,3.28-3.9,16.43,16.43,0,0,1,5.36-3,21.58,21.58,0,0,1,7.17-1.12,20,20,0,0,1,6.31.94A14.69,14.69,0,0,1,319,83.3a11.75,11.75,0,0,1,3.17,4.13,12,12,0,0,1,1.07,5.06,11.5,11.5,0,0,1-1.55,6.12,20.5,20.5,0,0,1-4.44,5,19.65,19.65,0,0,1,4.69,3.42,12.77,12.77,0,0,1,3.83,9.3,15.7,15.7,0,0,1-1.3,6.28,16,16,0,0,1-3.83,5.4,18.45,18.45,0,0,1-6,3.71A21.2,21.2,0,0,1,306.9,133a18.41,18.41,0,0,1-7.66-1.53,17.62,17.62,0,0,1-5.58-3.83,17.38,17.38,0,0,1-3.31-4.76,10.36,10.36,0,0,1-1.13-4.07,4.4,4.4,0,0,1,1.34-3.33,4.66,4.66,0,0,1,3.33-1.26,3.56,3.56,0,0,1,1.93.58,2.82,2.82,0,0,1,1.21,1.41,24,24,0,0,0,4,7.36,7.54,7.54,0,0,0,6,2.41,9,9,0,0,0,7.65-4.31,9.19,9.19,0,0,0,1.34-5,9,9,0,0,0-2.28-6.54,8.42,8.42,0,0,0-6.35-2.37c-.47,0-1.21.05-2.21.14s-1.64.15-1.92.15a4.33,4.33,0,0,1-3-1,3.51,3.51,0,0,1-1.07-2.73,3.38,3.38,0,0,1,1.28-2.76,5.93,5.93,0,0,1,3.81-1.06Z"/>
      <path class="cls-11" d="M369,106.5a61.65,61.65,0,0,1-.71,10,23.54,23.54,0,0,1-2.64,7.63,17.55,17.55,0,0,1-6.27,6.49,16.49,16.49,0,0,1-8.56,2.28,16.26,16.26,0,0,1-9.71-3.07,18.6,18.6,0,0,1-6.47-8.48,31,31,0,0,1-1.62-6.54,53.59,53.59,0,0,1-.52-7.75,74.62,74.62,0,0,1,.57-9.7A32,32,0,0,1,334.81,90,16,16,0,0,1,350.5,79.48a17.75,17.75,0,0,1,6.66,1.2,15.13,15.13,0,0,1,5.26,3.49,19.79,19.79,0,0,1,3.83,5.69Q369,95.74,369,106.5Zm-9.77-.71a59.74,59.74,0,0,0-.78-10.68,13.07,13.07,0,0,0-2.64-6.27,6.45,6.45,0,0,0-5.13-2.12q-4.71,0-6.54,4.74t-1.84,14.61a62,62,0,0,0,.79,11,13.83,13.83,0,0,0,2.63,6.47,6.89,6.89,0,0,0,10.16-.09,14.09,14.09,0,0,0,2.61-6.52A67.54,67.54,0,0,0,359.19,105.79Z"/>
      <path class="cls-11" d="M396.51,93.28q0,6.81-3,10.12a10.5,10.5,0,0,1-8.2,3.32,11.7,11.7,0,0,1-5.76-1.41,9.57,9.57,0,0,1-4-4.4,17,17,0,0,1-1.43-7.31,23.22,23.22,0,0,1,1.11-7.74,9,9,0,0,1,3.58-4.7,11.43,11.43,0,0,1,6.33-1.61,12.89,12.89,0,0,1,4.88.86A9,9,0,0,1,393.63,83a11.55,11.55,0,0,1,2.17,4.3A21.86,21.86,0,0,1,396.51,93.28Zm-6.66-.36a16.94,16.94,0,0,0-1-6.79A3.58,3.58,0,0,0,385.32,84a3.69,3.69,0,0,0-2.73,1,5.61,5.61,0,0,0-1.39,3,28.89,28.89,0,0,0-.37,5,30,30,0,0,0,.37,5.17,5.64,5.64,0,0,0,1.38,3,3.65,3.65,0,0,0,2.74,1A3.53,3.53,0,0,0,388.9,100,19.52,19.52,0,0,0,389.85,92.92Zm30.44-8.66L390.6,132.13c-.76,1.31-1.62,2-2.57,2a2.73,2.73,0,0,1-1.64-.62,2,2,0,0,1-.82-1.62,3.52,3.52,0,0,1,.71-1.82l29.87-48.27a13.54,13.54,0,0,1,1.38-2,2.13,2.13,0,0,1,1.69-.66,2.44,2.44,0,0,1,1.73.62,2.18,2.18,0,0,1,.66,1.66A7.29,7.29,0,0,1,420.29,84.26ZM433,119.05q0,6.81-3,10.12a10.5,10.5,0,0,1-8.2,3.32,11.67,11.67,0,0,1-5.79-1.43,9.7,9.7,0,0,1-4-4.38,16.51,16.51,0,0,1-1.45-7.31q0-6.95,2.66-10.46t8.43-3.51a12.75,12.75,0,0,1,4.86.85,9.39,9.39,0,0,1,3.57,2.57,10.89,10.89,0,0,1,2.19,4.26A22.11,22.11,0,0,1,433,119.05Zm-6.66-.36a16.72,16.72,0,0,0-1-6.72,3.58,3.58,0,0,0-3.53-2.12,3.78,3.78,0,0,0-2.78,1,5.87,5.87,0,0,0-1.41,2.94,25.53,25.53,0,0,0-.41,5,17.72,17.72,0,0,0,1,7,3.63,3.63,0,0,0,3.58,2.21,3.55,3.55,0,0,0,3.57-2.26A19.34,19.34,0,0,0,426.35,118.69Z"/>
      <path class="cls-11" d="M181.68,166.58a27.91,27.91,0,0,1,14,3.3,21.45,21.45,0,0,1,8.82,9.38,31.88,31.88,0,0,1,3,14.27,35.07,35.07,0,0,1-1.64,11,24.1,24.1,0,0,1-4.92,8.59,21.69,21.69,0,0,1-8.06,5.56,29.13,29.13,0,0,1-10.94,1.92,28.81,28.81,0,0,1-11-2,21.67,21.67,0,0,1-8.09-5.58,23.65,23.65,0,0,1-4.9-8.66,34.79,34.79,0,0,1-1.66-10.94A33.83,33.83,0,0,1,158,182.41a23.58,23.58,0,0,1,5-8.55,21.39,21.39,0,0,1,8-5.4A28.7,28.7,0,0,1,181.68,166.58Zm15,26.88a24.39,24.39,0,0,0-1.86-9.94,13.82,13.82,0,0,0-5.29-6.37,14.62,14.62,0,0,0-7.9-2.15,14.38,14.38,0,0,0-5.86,1.19,12.93,12.93,0,0,0-4.63,3.48,16.55,16.55,0,0,0-3.07,5.82,26.33,26.33,0,0,0-1.12,8,27,27,0,0,0,1.12,8.06,16.63,16.63,0,0,0,3.17,6A13.31,13.31,0,0,0,176,211a14.13,14.13,0,0,0,5.83,1.18,14.31,14.31,0,0,0,7.46-2,14.07,14.07,0,0,0,5.42-6.28A24.23,24.23,0,0,0,196.73,193.46Z"/>
      <path class="cls-11" d="M247.73,175.64H226.88V189h17.43a5.26,5.26,0,0,1,3.62,1.09,3.74,3.74,0,0,1,1.19,2.91,3.63,3.63,0,0,1-1.21,2.88,5.27,5.27,0,0,1-3.6,1.07H226.88v17.22A6.92,6.92,0,0,1,225.4,219a5.37,5.37,0,0,1-7.63,0,7,7,0,0,1-1.48-4.85V174a8.8,8.8,0,0,1,.68-3.72,4.27,4.27,0,0,1,2.12-2.11,9.14,9.14,0,0,1,3.69-.65h24.95a5.42,5.42,0,0,1,3.76,1.12,3.8,3.8,0,0,1,1.23,2.94,3.85,3.85,0,0,1-1.23,3A5.47,5.47,0,0,1,247.73,175.64Z"/>
      <path class="cls-11" d="M291.83,175.64H271V189H288.4a5.24,5.24,0,0,1,3.62,1.09,3.75,3.75,0,0,1,1.2,2.91,3.64,3.64,0,0,1-1.22,2.88,5.23,5.23,0,0,1-3.6,1.07H271v17.22a6.92,6.92,0,0,1-1.48,4.87,5.36,5.36,0,0,1-7.62,0,6.93,6.93,0,0,1-1.48-4.85V174a8.81,8.81,0,0,1,.67-3.72,4.29,4.29,0,0,1,2.13-2.11,9.05,9.05,0,0,1,3.68-.65h25a5.43,5.43,0,0,1,3.76,1.12,3.8,3.8,0,0,1,1.23,2.94,3.85,3.85,0,0,1-1.23,3A5.48,5.48,0,0,1,291.83,175.64Z"/>
    </g>
  </g>
  <g id="TEXTO-COMPRAR">
    <text class="cls-12" transform="translate(39.68 423.8)">COMPRAR</text>
  </g>
  <g id="IMG">
    <image width="857" height="455" transform="translate(515.18 346.24) rotate(-45) scale(0.57)" xlink:href="../img/pipa/p-curvavidrio.png"/>
  </g>
</svg>
