<svg xmlns="http://www.w3.org/2000/svg" xmlns:xlink="http://www.w3.org/1999/xlink" viewBox="0 0 1505.4 445.86">
  <defs>
    <style>
      .cls-1, .cls-11, .cls-12, .cls-13 {
        fill: none;
      }

      .cls-2 {
        isolation: isolate;
      }

      .cls-15, .cls-3 {
        fill: #fff;
      }

      .cls-4 {
        clip-path: url(#clip-path);
      }

      .cls-5 {
        opacity: 0.79;
      }

      .cls-6 {
        opacity: 0.75;
      }

      .cls-10, .cls-6, .cls-8 {
        mix-blend-mode: multiply;
      }

      .cls-17, .cls-7, .cls-8 {
        fill: #212121;
      }

      .cls-9 {
        fill: #2caf35;
      }

      .cls-10 {
        fill: #d32f2f;
        opacity: 0.54;
      }

      .cls-11, .cls-13 {
        stroke: #212121;
      }

      .cls-11, .cls-12, .cls-13 {
        stroke-miterlimit: 10;
        stroke-width: 1.5px;
      }

      .cls-11 {
        mix-blend-mode: overlay;
      }

      .cls-12 {
        stroke: #fff;
        mix-blend-mode: screen;
      }

      .cls-14 {
        fill: #f9f7f7;
      }

      .cls-15 {
        font-size: 80.26px;
        font-family: Antonio-Bold, Antonio Bold;
        font-weight: 700;
      }

      .cls-16 {
        letter-spacing: -0.07em;
      }

      .cls-17 {
        font-size: 65.08px;
      }

      .cls-17, .cls-21 {
        font-family: Yellowtail;
      }

      .cls-18 {
        letter-spacing: -0.01em;
      }

      .cls-19 {
        letter-spacing: 0em;
      }

      .cls-20 {
        letter-spacing: 0em;
      }

      .cls-21 {
        font-size: 41px;
      }

      .cls-21, .cls-23 {
        fill: #fff8f8;
      }

      .cls-22 {
        letter-spacing: -0.03em;
      }
    </style>
    <clipPath id="clip-path">
      <rect class="cls-1" width="1361.96" height="449"/>
    </clipPath>
  </defs>
  <g class="cls-2">
    <g id="OBJECTS">
      <g>
        <g>
          <rect class="cls-3" width="1361.96" height="449"/>
          <g class="cls-4">
            <g>
              <g>
                <image class="cls-6" width="840" height="1161" transform="translate(-14.12 -491.7)" xlink:href="banner-new1.png"/>
                <path class="cls-7" d="M268.81,606,8.9,73.45A70.8,70.8,0,0,1,19.64-4.71L414.13-451.87c34.95-39.62,100.15-31.11,123.18,16.08L797.22,96.76a70.84,70.84,0,0,1-10.73,78.17L392,622.09C357,661.7,291.84,653.19,268.81,606Z"/>
              </g>
              <path class="cls-8" d="M229.17,427.33-30.74-105.23A70.84,70.84,0,0,1-20-183.39L374.49-630.55c34.95-39.62,100.16-31.11,123.18,16.08L757.58-81.92A70.84,70.84,0,0,1,746.85-3.75L352.36,443.4C317.4,483,252.2,474.51,229.17,427.33Z"/>
              <g>
                <image class="cls-6" width="828" height="1150" transform="translate(-166.12 -353.7)" xlink:href="banner-new2.png"/>
                <path class="cls-9" d="M110.29,739.16-149.62,206.6a70.86,70.86,0,0,1,10.74-78.17L255.61-318.72c34.95-39.62,100.16-31.11,123.19,16.07L638.71,229.91A70.86,70.86,0,0,1,628,308.08L233.48,755.23C198.53,794.85,133.32,786.34,110.29,739.16Z"/>
              </g>
              <path class="cls-10" d="M-156.1,297-416-235.53a70.84,70.84,0,0,1,10.73-78.17l394.5-447.16c35-39.61,100.15-31.1,123.18,16.08L372.31-212.22a70.8,70.8,0,0,1-10.74,78.16L-32.92,313.1C-67.87,352.72-133.07,344.21-156.1,297Z"/>
              <path class="cls-11" d="M32.59,628.26-227.32,95.71a70.83,70.83,0,0,1,10.73-78.17L177.9-429.62c35-39.62,100.16-31.11,123.19,16.08L561,119a70.86,70.86,0,0,1-10.74,78.17L155.77,644.34C120.82,684,55.61,675.45,32.59,628.26Z"/>
              <path class="cls-12" d="M350.1-301.54c34.95-39.62,100.15-31.11,123.18,16.07L733.19,247.09a70.82,70.82,0,0,1-10.74,78.17L328,772.41C293,812,227.81,803.52,204.78,756.34"/>
            </g>
          </g>
        </g>
        <g>
          <rect class="cls-13" x="52.47" y="348.06" width="194.02" height="43.38" rx="10"/>
          <ellipse class="cls-7" cx="411.48" cy="336.02" rx="92.52" ry="82.08"/>
        </g>
      </g>
      <path class="cls-14" d="M454.72,350.17H393.06l1.37,6.73h56.46a5.06,5.06,0,0,1,4.93,6.17l-1.17,5.1a11.79,11.79,0,1,1-13.37,2.19h-44.1a11.78,11.78,0,1,1-14.1-1.8L368.3,296.32H353.6a5,5,0,0,1-5.05-5.05v-3.36a5,5,0,0,1,5.05-5.05h21.57a5,5,0,0,1,4.94,4l1.93,9.43h82.62a5,5,0,0,1,4.92,6.17l-9.94,43.75A5,5,0,0,1,454.72,350.17Zm-20.35-32H424.28v-8.42a3.36,3.36,0,0,0-3.37-3.36h-3.36a3.36,3.36,0,0,0-3.37,3.36v8.42h-10.1a3.36,3.36,0,0,0-3.36,3.36v3.37a3.36,3.36,0,0,0,3.36,3.36h10.1v8.42a3.36,3.36,0,0,0,3.37,3.36h3.36a3.36,3.36,0,0,0,3.37-3.36v-8.42h10.09a3.36,3.36,0,0,0,3.37-3.36v-3.37A3.36,3.36,0,0,0,434.37,318.2Z"/>
    </g>
    <g id="titulo-mas-grande">
      <text class="cls-15" transform="translate(18.11 208.41) scale(1.03 1)">HAS<tspan class="cls-16" x="141.02" y="0">T</tspan><tspan x="174.89" y="0">A 30% OFF</tspan></text>
    </g>
    <g id="comprar">
      <text class="cls-17" transform="matrix(1.03, -0.03, -0.09, 1, 35.09, 295.28)"><tspan class="cls-18">C</tspan><tspan class="cls-19" x="37.03" y="0">omp</tspan><tspan class="cls-20" x="164.05" y="0">r</tspan><tspan x="185.01" y="0">ar</tspan></text>
    </g>
    <g id="boton-ver-mas">
      <text class="cls-21" transform="translate(80.07 380.6) scale(1.03 1)"><tspan class="cls-22">V</tspan><tspan x="21.53" y="0">er más</tspan></text>
    </g>
    <g id="img4">
      <image width="209" height="932" transform="translate(889.88 23.35) scale(0.21)" xlink:href="../img/pipa/p-bala-calavera.png"/>
    </g>
    <g id="img3">
      <image width="672" height="734" transform="translate(1002.81 14.51) scale(0.29)" xlink:href="../img/pipa/p-boquilla-peque%C3%B1a.png"/>
    </g>
    <g id="img-2">
      <image width="857" height="455" transform="matrix(0.43, 0.04, -0.04, 0.43, 829.44, 215.78)" xlink:href="../img/pipa/p-curvavidrio.png"/>
    </g>
    <g id="img-1">
      <image width="765" height="540" transform="matrix(0, -0.47, 0.47, 0, 1250.55, 406.63)" xlink:href="../img/pipa/pipa-pepino.png"/>
    </g>
    <g id="promocion-fecha">
      <g>
        <path class="cls-23" d="M110.06,17.32a43.67,43.67,0,0,1,7.08-.54c3.64,0,6.31.82,8,2.3a7.31,7.31,0,0,1,2.5,5.78,8,8,0,0,1-2.2,5.9c-2,2-5.13,3-8.73,3a12.77,12.77,0,0,1-3-.25V44.62h-3.69Zm3.69,13.32a12.45,12.45,0,0,0,3,.29c4.45,0,7.16-2.09,7.16-5.91,0-3.65-2.67-5.41-6.74-5.41a15.53,15.53,0,0,0-3.47.29Z"/>
        <path class="cls-23" d="M131.8,31c0-2.34,0-4.35-.17-6.19h3.26l.13,3.89h.17a6.11,6.11,0,0,1,5.67-4.34,4.24,4.24,0,0,1,1.06.12v3.4a5.89,5.89,0,0,0-1.27-.12c-2.63,0-4.49,1.93-5,4.63a10.36,10.36,0,0,0-.17,1.68V44.62H131.8Z"/>
        <path class="cls-23" d="M163.78,34.54c0,7.33-5.25,10.53-10.21,10.53-5.55,0-9.83-3.93-9.83-10.21,0-6.64,4.49-10.53,10.17-10.53C159.8,24.33,163.78,28.47,163.78,34.54Zm-16.27.2c0,4.35,2.59,7.63,6.23,7.63S160,39.13,160,34.66c0-3.36-1.74-7.63-6.14-7.63S147.51,31,147.51,34.74Z"/>
        <path class="cls-23" d="M168.49,30.15c0-2-.05-3.73-.17-5.37h3.26l.17,3.2h.12a7.1,7.1,0,0,1,6.44-3.65,6.06,6.06,0,0,1,5.81,4h.08a8.41,8.41,0,0,1,2.29-2.58A7.16,7.16,0,0,1,191,24.33c2.71,0,6.74,1.72,6.74,8.61V44.62h-3.65V33.39c0-3.82-1.44-6.11-4.44-6.11a4.82,4.82,0,0,0-4.41,3.28,5.74,5.74,0,0,0-.3,1.8V44.62h-3.64V32.73c0-3.16-1.44-5.45-4.28-5.45a5,5,0,0,0-4.61,3.61,4.62,4.62,0,0,0-.3,1.76v12h-3.64Z"/>
        <path class="cls-23" d="M222.37,34.54c0,7.33-5.25,10.53-10.21,10.53-5.55,0-9.82-3.93-9.82-10.21,0-6.64,4.49-10.53,10.16-10.53C218.39,24.33,222.37,28.47,222.37,34.54Zm-16.26.2c0,4.35,2.58,7.63,6.22,7.63s6.23-3.24,6.23-7.71c0-3.36-1.74-7.63-6.14-7.63S206.11,31,206.11,34.74Z"/>
        <path class="cls-23" d="M241.69,43.88A14,14,0,0,1,235.8,45c-6.18,0-10.21-4.06-10.21-10.13s4.32-10.53,11-10.53a12.8,12.8,0,0,1,5.16,1l-.84,2.79a8.91,8.91,0,0,0-4.32-.94c-4.7,0-7.25,3.36-7.25,7.5,0,4.59,3,7.42,7.12,7.42a10.84,10.84,0,0,0,4.57-1Z"/>
        <path class="cls-23" d="M250.21,19.2a2.31,2.31,0,0,1-4.62,0A2.23,2.23,0,0,1,247.92,17,2.17,2.17,0,0,1,250.21,19.2Zm-4.15,25.42V24.78h3.72V44.62Z"/>
        <path class="cls-23" d="M274.52,34.54c0,7.33-5.25,10.53-10.21,10.53-5.55,0-9.82-3.93-9.82-10.21,0-6.64,4.49-10.53,10.16-10.53C270.54,24.33,274.52,28.47,274.52,34.54Zm-16.26.2c0,4.35,2.58,7.63,6.22,7.63s6.23-3.24,6.23-7.71c0-3.36-1.74-7.63-6.14-7.63S258.26,31,258.26,34.74Zm11.81-18.53-5.16,5.86h-2.67L266,16.21Z"/>
        <path class="cls-23" d="M279.23,30.15c0-2,0-3.73-.17-5.37h3.3l.21,3.28h.09a7.58,7.58,0,0,1,6.78-3.73c2.83,0,7.24,1.64,7.24,8.44V44.62H293V33.18c0-3.2-1.23-5.86-4.74-5.86a5.26,5.26,0,0,0-5,3.69,5,5,0,0,0-.25,1.68V44.62h-3.73Z"/>
        <path class="cls-23" d="M313.8,35.36c.08,4.87,3.3,6.88,7,6.88a13.88,13.88,0,0,0,5.67-1l.64,2.58A17,17,0,0,1,320.32,45c-6.31,0-10.08-4-10.08-10s3.64-10.7,9.61-10.7c6.7,0,8.48,5.7,8.48,9.34a13.68,13.68,0,0,1-.13,1.69Zm10.93-2.59c0-2.29-1-5.86-5.17-5.86-3.77,0-5.42,3.36-5.72,5.86Z"/>
        <path class="cls-23" d="M333,30.15c0-2-.05-3.73-.17-5.37h3.3l.21,3.28h.09a7.57,7.57,0,0,1,6.78-3.73c2.83,0,7.24,1.64,7.24,8.44V44.62h-3.73V33.18c0-3.2-1.23-5.86-4.74-5.86a5.26,5.26,0,0,0-5,3.69,5,5,0,0,0-.26,1.68V44.62H333Z"/>
        <path class="cls-23" d="M365.44,31.26c0-2.55-.08-4.6-.17-6.48h3.35l.17,3.4h.08a8.13,8.13,0,0,1,7.29-3.85c4.95,0,8.68,4.06,8.68,10.08,0,7.14-4.49,10.66-9.32,10.66A7.28,7.28,0,0,1,369.21,42h-.08V52.74h-3.69Zm3.69,5.28a8.28,8.28,0,0,0,.16,1.48,5.73,5.73,0,0,0,5.6,4.22c3.94,0,6.22-3.11,6.22-7.66,0-4-2.16-7.38-6.1-7.38a5.9,5.9,0,0,0-5.63,4.47,5.52,5.52,0,0,0-.25,1.47Z"/>
        <path class="cls-23" d="M393.7,19.2a2.31,2.31,0,0,1-4.62,0A2.23,2.23,0,0,1,391.41,17,2.17,2.17,0,0,1,393.7,19.2Zm-4.15,25.42V24.78h3.72V44.62Z"/>
        <path class="cls-23" d="M399.46,31.26c0-2.55-.09-4.6-.17-6.48h3.35l.17,3.4h.08a8.13,8.13,0,0,1,7.29-3.85c4.95,0,8.68,4.06,8.68,10.08,0,7.14-4.49,10.66-9.32,10.66A7.28,7.28,0,0,1,403.23,42h-.09V52.74h-3.68Zm3.68,5.28a8.25,8.25,0,0,0,.17,1.48,5.73,5.73,0,0,0,5.6,4.22c3.93,0,6.22-3.11,6.22-7.66,0-4-2.16-7.38-6.1-7.38a5.9,5.9,0,0,0-5.63,4.47,5.53,5.53,0,0,0-.26,1.47Z"/>
        <path class="cls-23" d="M434.92,44.62l-.3-2.5h-.13a7.7,7.7,0,0,1-6.27,3c-4.15,0-6.26-2.83-6.26-5.7,0-4.79,4.4-7.42,12.32-7.38v-.41c0-1.64-.46-4.59-4.66-4.59a10.45,10.45,0,0,0-5.33,1.48l-.85-2.38a13,13,0,0,1,6.73-1.76c6.27,0,7.8,4.14,7.8,8.11v7.43a26.43,26.43,0,0,0,.34,4.75Zm-.55-10.13c-4.07-.08-8.69.62-8.69,4.47a3.25,3.25,0,0,0,3.52,3.45,5.08,5.08,0,0,0,4.95-3.32,3.6,3.6,0,0,0,.22-1.15Z"/>
        <path class="cls-23" d="M443.48,40.93a10,10,0,0,0,4.91,1.44c2.71,0,4-1.32,4-3s-1.06-2.66-3.81-3.64c-3.69-1.28-5.42-3.24-5.42-5.62,0-3.2,2.67-5.82,7.07-5.82a10.42,10.42,0,0,1,5,1.23l-.93,2.62A8.18,8.18,0,0,0,450.13,27c-2.21,0-3.43,1.23-3.43,2.71,0,1.64,1.22,2.38,3.89,3.36,3.56,1.31,5.38,3,5.38,6,0,3.48-2.79,5.94-7.66,5.94a12,12,0,0,1-5.77-1.35Z"/>
        <path class="cls-23" d="M86.78,57.51v24c0,1.76,0,3.77.17,5.12H83.61l-.17-3.44h-.09a7.62,7.62,0,0,1-7,3.89c-5,0-8.76-4.06-8.76-10.08,0-6.6,4.19-10.66,9.19-10.66,3.13,0,5.25,1.43,6.18,3h.09V57.51ZM83.06,74.85a6.48,6.48,0,0,0-.17-1.51,5.44,5.44,0,0,0-5.38-4.18c-3.86,0-6.14,3.28-6.14,7.66,0,4,2,7.34,6,7.34a5.58,5.58,0,0,0,5.47-4.3,6.49,6.49,0,0,0,.17-1.56Z"/>
        <path class="cls-23" d="M95.05,77.36c.08,4.87,3.3,6.88,7,6.88a14,14,0,0,0,5.68-1l.63,2.58A17,17,0,0,1,101.57,87c-6.31,0-10.08-4-10.08-10s3.64-10.7,9.62-10.7c6.69,0,8.47,5.7,8.47,9.34a13.68,13.68,0,0,1-.13,1.69ZM106,74.77c0-2.29-1-5.86-5.17-5.86-3.77,0-5.42,3.36-5.72,5.86Z"/>
        <path class="cls-23" d="M114.2,57.51h3.72V86.62H114.2Z"/>
        <path class="cls-23" d="M132,86.62V84.41l2.92-2.75c7-6.48,10.21-9.92,10.25-13.94,0-2.71-1.35-5.21-5.46-5.21a9.52,9.52,0,0,0-5.85,2.26l-1.18-2.54a12.28,12.28,0,0,1,7.79-2.71c5.93,0,8.43,3.94,8.43,7.75,0,4.92-3.68,8.9-9.49,14.31l-2.2,2v.08h12.37v3Z"/>
        <path class="cls-23" d="M172,73c0,9.06-3.47,14.06-9.57,14.06-5.38,0-9-4.88-9.11-13.69s4-13.86,9.57-13.86C168.72,59.52,172,64.52,172,73Zm-15,.41c0,6.93,2.2,10.86,5.59,10.86,3.81,0,5.63-4.3,5.63-11.11,0-6.56-1.73-10.86-5.59-10.86C159.44,62.31,157.07,66.16,157.07,73.42Z"/>
        <path class="cls-23" d="M194.26,74.2v2.66H183.8V74.2Z"/>
        <path class="cls-23" d="M197.44,86.62V84.41l2.93-2.75c7-6.48,10.2-9.92,10.25-13.94,0-2.71-1.36-5.21-5.47-5.21a9.49,9.49,0,0,0-5.84,2.26l-1.19-2.54a12.33,12.33,0,0,1,7.79-2.71c5.93,0,8.43,3.94,8.43,7.75,0,4.92-3.68,8.9-9.48,14.31l-2.21,2v.08H215v3Z"/>
        <path class="cls-23" d="M234.89,62.51a13.51,13.51,0,0,0-2.79.17,11,11,0,0,0-9.58,9.47h.13a8.3,8.3,0,0,1,6.65-3.08c4.87,0,8.3,3.41,8.3,8.61,0,4.88-3.43,9.39-9.15,9.39-5.89,0-9.74-4.43-9.74-11.35a16.49,16.49,0,0,1,4.66-12,15.24,15.24,0,0,1,8.81-3.93,17.74,17.74,0,0,1,2.71-.21Zm-1.06,15.38c0-3.81-2.24-6.11-5.67-6.11a6.14,6.14,0,0,0-5.34,3.28,2.94,2.94,0,0,0-.42,1.6c.08,4.39,2.16,7.62,6,7.62C231.67,84.28,233.83,81.7,233.83,77.89Z"/>
        <path class="cls-23" d="M268.78,57.51v24c0,1.76,0,3.77.17,5.12H265.6l-.16-3.44h-.09a7.62,7.62,0,0,1-7,3.89c-5,0-8.77-4.06-8.77-10.08,0-6.6,4.2-10.66,9.19-10.66,3.14,0,5.26,1.43,6.19,3h.08V57.51Zm-3.73,17.34a6,6,0,0,0-.17-1.51,5.43,5.43,0,0,0-5.38-4.18c-3.85,0-6.14,3.28-6.14,7.66,0,4,2,7.34,6.06,7.34a5.56,5.56,0,0,0,5.46-4.3,6,6,0,0,0,.17-1.56Z"/>
        <path class="cls-23" d="M277.05,77.36c.08,4.87,3.3,6.88,7,6.88a13.92,13.92,0,0,0,5.67-1l.64,2.58A17,17,0,0,1,283.57,87c-6.31,0-10.08-4-10.08-10s3.64-10.7,9.61-10.7c6.7,0,8.47,5.7,8.47,9.34a14.11,14.11,0,0,1-.12,1.69ZM288,74.77c0-2.29-1-5.86-5.16-5.86-3.77,0-5.43,3.36-5.72,5.86Z"/>
        <path class="cls-23" d="M305.3,86.62V59h4l9.15,14a77.78,77.78,0,0,1,5.12,9l.09,0c-.34-3.69-.43-7.06-.43-11.36V59h3.48V86.62H323l-9.07-14a86.83,86.83,0,0,1-5.33-9.23l-.13.05c.21,3.48.3,6.8.3,11.39V86.62Z"/>
        <path class="cls-23" d="M351.61,76.54c0,7.33-5.26,10.53-10.21,10.53-5.55,0-9.83-3.93-9.83-10.21,0-6.64,4.49-10.53,10.17-10.53C347.62,66.33,351.61,70.47,351.61,76.54Zm-16.27.2c0,4.35,2.58,7.63,6.23,7.63s6.22-3.24,6.22-7.71c0-3.36-1.73-7.63-6.14-7.63S335.34,73,335.34,76.74Z"/>
        <path class="cls-23" d="M357.46,66.78l4,11.15A48,48,0,0,1,363.13,83h.13c.46-1.64,1.06-3.28,1.74-5.08l4-11.15h3.89l-8,19.84h-3.56l-7.8-19.84Z"/>
        <path class="cls-23" d="M380.54,61.2a2.31,2.31,0,0,1-4.61,0A2.23,2.23,0,0,1,378.26,59,2.17,2.17,0,0,1,380.54,61.2Zm-4.15,25.42V66.78h3.73V86.62Z"/>
        <path class="cls-23" d="M388.38,77.36c.08,4.87,3.3,6.88,7,6.88a14,14,0,0,0,5.68-1l.63,2.58A16.93,16.93,0,0,1,394.9,87c-6.31,0-10.08-4-10.08-10s3.64-10.7,9.62-10.7c6.69,0,8.47,5.7,8.47,9.34a11.94,11.94,0,0,1-.13,1.69Zm10.93-2.59c0-2.29-1-5.86-5.17-5.86-3.77,0-5.42,3.36-5.72,5.86Z"/>
        <path class="cls-23" d="M407.53,72.15c0-2.05,0-3.73-.17-5.37h3.26l.17,3.2h.13a7.09,7.09,0,0,1,6.44-3.65,6.05,6.05,0,0,1,5.8,4h.08a8.41,8.41,0,0,1,2.29-2.58,7.18,7.18,0,0,1,4.53-1.39c2.72,0,6.74,1.72,6.74,8.61V86.62h-3.64V75.39c0-3.82-1.44-6.11-4.45-6.11a4.82,4.82,0,0,0-4.41,3.28,5.75,5.75,0,0,0-.29,1.8V86.62h-3.65V74.73c0-3.16-1.44-5.45-4.27-5.45a5.05,5.05,0,0,0-4.62,3.61,4.82,4.82,0,0,0-.3,1.76v12h-3.64Z"/>
        <path class="cls-23" d="M442.69,86.62c.09-1.35.17-3.36.17-5.12v-24h3.69V70h.08a7.7,7.7,0,0,1,7-3.65c5.09,0,8.68,4.1,8.64,10.12,0,7.1-4.61,10.62-9.19,10.62a7.34,7.34,0,0,1-6.86-3.73h-.13l-.17,3.28Zm3.86-8a6.18,6.18,0,0,0,.17,1.31,5.72,5.72,0,0,0,5.59,4.22c3.9,0,6.23-3.07,6.23-7.62,0-4-2.12-7.38-6.1-7.38a5.9,5.9,0,0,0-5.68,4.42,6.66,6.66,0,0,0-.21,1.48Z"/>
        <path class="cls-23" d="M467,73c0-2.34,0-4.35-.17-6.19h3.26l.13,3.89h.17A6.11,6.11,0,0,1,476,66.33a4.24,4.24,0,0,1,1.06.12v3.4a5.89,5.89,0,0,0-1.27-.12c-2.62,0-4.49,1.93-5,4.63a10.36,10.36,0,0,0-.17,1.68V86.62H467Z"/>
        <path class="cls-23" d="M482.47,77.36c.09,4.87,3.31,6.88,7,6.88a14,14,0,0,0,5.68-1l.64,2.58A17,17,0,0,1,489,87c-6.31,0-10.08-4-10.08-10s3.64-10.7,9.61-10.7c6.69,0,8.47,5.7,8.47,9.34a11.94,11.94,0,0,1-.13,1.69Zm10.93-2.59c0-2.29-1-5.86-5.17-5.86-3.77,0-5.42,3.36-5.71,5.86Z"/>
      </g>
    </g>
  </g>
</svg>
