<svg xmlns="http://www.w3.org/2000/svg" xmlns:xlink="http://www.w3.org/1999/xlink" viewBox="0 0 565.32 255.02">
  <defs>
    <style>
      .cls-1 {
        isolation: isolate;
      }

      .cls-2 {
        fill: #ffc800;
      }

      .cls-3 {
        fill: #388909;
      }

      .cls-4 {
        mix-blend-mode: multiply;
        fill: url(#linear-gradient);
      }

      .cls-5 {
        fill: #fff;
      }

      .cls-6 {
        font-size: 37px;
        stroke: #000;
        stroke-miterlimit: 10;
        stroke-width: 2px;
      }

      .cls-10, .cls-16, .cls-6, .cls-7 {
        font-family: MyriadPro-Regular, Myriad Pro;
      }

      .cls-7 {
        font-size: 30px;
      }

      .cls-8 {
        letter-spacing: 0em;
      }

      .cls-9 {
        letter-spacing: -0.01em;
      }

      .cls-10 {
        font-size: 22px;
        fill: #f9f9f9;
      }

      .cls-11 {
        letter-spacing: 0em;
      }

      .cls-12 {
        letter-spacing: -0.01em;
      }

      .cls-13 {
        letter-spacing: -0.01em;
      }

      .cls-14 {
        letter-spacing: -0.01em;
      }

      .cls-15 {
        letter-spacing: 0em;
      }

      .cls-16 {
        font-size: 32px;
        fill: #fcfcfc;
      }

      .cls-17 {
        letter-spacing: -0.08em;
      }

      .cls-18 {
        letter-spacing: 0em;
      }
    </style>
    <linearGradient id="linear-gradient" x1="237.4" y1="33.84" x2="332.51" y2="94.29" gradientUnits="userSpaceOnUse">
      <stop offset="0" stop-color="#a31300"/>
      <stop offset="0.04" stop-color="#ae2e1d"/>
      <stop offset="0.1" stop-color="#bf5a4c"/>
      <stop offset="0.17" stop-color="#ce8177"/>
      <stop offset="0.24" stop-color="#dba39c"/>
      <stop offset="0.32" stop-color="#e6c0bb"/>
      <stop offset="0.4" stop-color="#efd7d4"/>
      <stop offset="0.5" stop-color="#f6e9e7"/>
      <stop offset="0.61" stop-color="#fbf5f5"/>
      <stop offset="0.75" stop-color="#fefdfd"/>
      <stop offset="1" stop-color="#fff"/>
    </linearGradient>
  </defs>
  <g class="cls-1">
    <g id="Banner">
      <g>
        <rect class="cls-2" width="561.6" height="216"/>
        <g>
          <path d="M165.55,152.13H72.64L44,57.63H27.86a3.47,3.47,0,1,1,0-6.94H49.18l28.61,94.5h82.85L183.69,80a3.47,3.47,0,0,1,6.54,2.32Z"/>
          <polygon points="63.35 80.25 81.19 140.48 157.9 140.48 178.73 80.25 63.35 80.25"/>
          <g>
            <circle cx="158.52" cy="164.69" r="6.35"/>
            <path d="M77.21,164.69a6.35,6.35,0,1,0,6.35-6.35A6.35,6.35,0,0,0,77.21,164.69Z"/>
          </g>
          <path d="M187,74.57H63.35a3.47,3.47,0,1,1,0-6.94H187a3.47,3.47,0,0,1,0,6.94Z"/>
        </g>
        <g>
          <path class="cls-3" d="M561.6,0V216h-415C173.77,172,258.19,35.47,280.9,0Z"/>
          <path class="cls-4" d="M561.6,0V216h-415C173.77,172,258.19,35.47,280.9,0Z"/>
        </g>
        <g>
          <circle class="cls-5" cx="199.91" cy="39.56" r="11.56" transform="translate(115.48 225.03) rotate(-76.72)"/>
          <path class="cls-5" d="M45,148.3a4.74,4.74,0,1,1-4.74-4.74A4.74,4.74,0,0,1,45,148.3Z"/>
          <circle class="cls-5" cx="117.54" cy="187.11" r="8.59"/>
          <path class="cls-5" d="M55,197.78a4.45,4.45,0,1,1-4.44-4.45A4.44,4.44,0,0,1,55,197.78Z"/>
          <circle class="cls-5" cx="102.73" cy="27.11" r="15.7"/>
          <path class="cls-5" d="M157,39.56a3.26,3.26,0,1,1-3.26-3.26A3.25,3.25,0,0,1,157,39.56Z"/>
          <path class="cls-5" d="M223.91,71.85a4.74,4.74,0,1,1-4.74-4.74A4.74,4.74,0,0,1,223.91,71.85Z"/>
          <circle class="cls-5" cx="25.39" cy="93.19" r="8.3"/>
          <circle class="cls-3" cx="244.95" cy="22.96" r="10.37"/>
          <path class="cls-3" d="M54.43,121a3,3,0,1,1-3-3A3,3,0,0,1,54.43,121Z"/>
          <circle class="cls-3" cx="24.5" cy="189.48" r="8"/>
          <path class="cls-3" d="M97.69,194.81a1.48,1.48,0,1,1-1.48-1.48A1.49,1.49,0,0,1,97.69,194.81Z"/>
          <circle class="cls-3" cx="42.87" cy="25.93" r="9.78" transform="translate(7.79 61.7) rotate(-76.72)"/>
          <circle class="cls-3" cx="79.02" cy="46.07" r="2.07"/>
          <path class="cls-3" d="M207.91,95.85a5,5,0,1,1-5-5A5,5,0,0,1,207.91,95.85Z"/>
        </g>
        <path class="cls-5" d="M162.87,209.24a.42.42,0,0,1-.26-.08.49.49,0,0,1-.16-.68l66.37-106.67a.5.5,0,0,1,.69-.16.51.51,0,0,1,.16.69L163.3,209A.5.5,0,0,1,162.87,209.24Z"/>
        <path class="cls-5" d="M223.32,134a.48.48,0,0,1-.26-.07.5.5,0,0,1-.17-.69L296.08,12a.48.48,0,0,1,.68-.17.49.49,0,0,1,.17.68L223.75,133.74A.5.5,0,0,1,223.32,134Z"/>
      </g>
      <text class="cls-6" transform="translate(75.98 44.77)">10% off</text>
    </g>
    <g id="Cannabis">
      <path class="cls-3" d="M150.08,120.86a31.54,31.54,0,0,0-7.74-2.6,42.56,42.56,0,0,0,8.56-16.68,1.62,1.62,0,0,0-.44-1.48,1.58,1.58,0,0,0-1.14-.48,1.32,1.32,0,0,0-.34,0,42.93,42.93,0,0,0-16.17,8v-.44a44.56,44.56,0,0,0-6.3-21.92,1.59,1.59,0,0,0-1.35-.75,1.61,1.61,0,0,0-1.36.75,44.56,44.56,0,0,0-6.3,21.92v.44a42.86,42.86,0,0,0-16.17-8,1.32,1.32,0,0,0-.34,0,1.62,1.62,0,0,0-1.57,2A42.3,42.3,0,0,0,108,118.26a31.18,31.18,0,0,0-7.73,2.6,1.62,1.62,0,0,0-.68,2.18,1.73,1.73,0,0,0,.67.67,31.61,31.61,0,0,0,13.45,3.19c.61,0,1.2,0,1.76,0a27.54,27.54,0,0,0-1.69,3.95,1.59,1.59,0,0,0,.39,1.62,1.62,1.62,0,0,0,1.62.41,31.79,31.79,0,0,0,7.78-4v6.45a.81.81,0,0,0,.81.8H126a.8.8,0,0,0,.81-.8v-6.45a32,32,0,0,0,7.78,4,1.62,1.62,0,0,0,1.62-.41,1.6,1.6,0,0,0,.4-1.62,28.39,28.39,0,0,0-1.7-3.95q.84,0,1.77,0a31.59,31.59,0,0,0,13.44-3.19,1.6,1.6,0,0,0,.85-1.42A1.63,1.63,0,0,0,150.08,120.86Z"/>
    </g>
    <g id="Titulo">
      <text class="cls-7" transform="translate(214.74 180.18)">10% descuento en pipas</text>
    </g>
    <g id="Imagenes">
      <g id="imagen1">
        <image width="787" height="754" transform="translate(275.8 30) scale(0.15)" xlink:href="../img/pipa/p-metal.png"/>
      </g>
      <g id="imagen_2" data-name="imagen 2">
        <image width="588" height="597" transform="translate(407.21 4.92) scale(0.25)" xlink:href="../img/pipa/P-Wax-y-Herbal.png"/>
      </g>
    </g>
    <g id="Informacion">
      <g id="Rectangulo">
        <rect y="191" width="561.6" height="60.6"/>
      </g>
      <g id="Info">
        <text class="cls-10" transform="translate(19.68 215.3)">Escribe este codigo a nuestros asesores  para el descuento</text>
      </g>
    </g>
    <g id="Codigo">
      <text class="cls-16" transform="translate(238.61 247.02)">P1PA5</text>
    </g>
  </g>
</svg>
