<svg xmlns="http://www.w3.org/2000/svg" xmlns:xlink="http://www.w3.org/1999/xlink" viewBox="0 0 561.6 281.82">
  <defs>
    <style>
      .cls-1 {
        isolation: isolate;
      }

      .cls-2 {
        fill: #ffc800;
      }

      .cls-3 {
        fill: #388909;
      }

      .cls-4 {
        mix-blend-mode: multiply;
        fill: url(#linear-gradient);
      }

      .cls-5 {
        fill: #fff;
      }

      .cls-6 {
        font-size: 30px;
      }

      .cls-10, .cls-6 {
        font-family: MyriadPro-Regular, Myriad Pro;
      }

      .cls-7 {
        letter-spacing: 0em;
      }

      .cls-8 {
        letter-spacing: -0.01em;
      }

      .cls-9 {
        fill: #f9f9f9;
      }

      .cls-10 {
        font-size: 37px;
        fill: #fcfcfc;
      }

      .cls-11 {
        letter-spacing: -0.08em;
      }

      .cls-12 {
        letter-spacing: 0em;
      }
    </style>
    <linearGradient id="linear-gradient" x1="237.4" y1="33.84" x2="332.51" y2="94.29" gradientUnits="userSpaceOnUse">
      <stop offset="0" stop-color="#a31300"/>
      <stop offset="0.04" stop-color="#ae2e1d"/>
      <stop offset="0.1" stop-color="#bf5a4c"/>
      <stop offset="0.17" stop-color="#ce8177"/>
      <stop offset="0.24" stop-color="#dba39c"/>
      <stop offset="0.32" stop-color="#e6c0bb"/>
      <stop offset="0.4" stop-color="#efd7d4"/>
      <stop offset="0.5" stop-color="#f6e9e7"/>
      <stop offset="0.61" stop-color="#fbf5f5"/>
      <stop offset="0.75" stop-color="#fefdfd"/>
      <stop offset="1" stop-color="#fff"/>
    </linearGradient>
  </defs>
  <g class="cls-1">
    <g id="Banner">
      <g>
        <rect class="cls-2" width="561.6" height="216"/>
        <g>
          <path d="M165.55,152.13H72.64L44,57.63H27.86a3.47,3.47,0,1,1,0-6.94H49.18l28.61,94.5h82.85L183.69,80a3.47,3.47,0,0,1,6.54,2.32Z"/>
          <polygon points="63.35 80.25 81.19 140.48 157.9 140.48 178.73 80.25 63.35 80.25"/>
          <g>
            <circle cx="158.52" cy="164.69" r="6.35"/>
            <path d="M77.21,164.69a6.35,6.35,0,1,0,6.35-6.35A6.35,6.35,0,0,0,77.21,164.69Z"/>
          </g>
          <path d="M187,74.57H63.35a3.47,3.47,0,1,1,0-6.94H187a3.47,3.47,0,0,1,0,6.94Z"/>
        </g>
        <g>
          <path class="cls-3" d="M561.6,0V216h-415C173.77,172,258.19,35.47,280.9,0Z"/>
          <path class="cls-4" d="M561.6,0V216h-415C173.77,172,258.19,35.47,280.9,0Z"/>
        </g>
        <g>
          <circle class="cls-5" cx="199.91" cy="39.56" r="11.56" transform="translate(115.48 225.03) rotate(-76.72)"/>
          <path class="cls-5" d="M45,148.3a4.74,4.74,0,1,1-4.74-4.74A4.74,4.74,0,0,1,45,148.3Z"/>
          <circle class="cls-5" cx="117.54" cy="187.11" r="8.59"/>
          <path class="cls-5" d="M55,197.78a4.45,4.45,0,1,1-4.44-4.45A4.44,4.44,0,0,1,55,197.78Z"/>
          <circle class="cls-5" cx="102.73" cy="27.11" r="15.7"/>
          <path class="cls-5" d="M157,39.56a3.26,3.26,0,1,1-3.26-3.26A3.25,3.25,0,0,1,157,39.56Z"/>
          <path class="cls-5" d="M223.91,71.85a4.74,4.74,0,1,1-4.74-4.74A4.74,4.74,0,0,1,223.91,71.85Z"/>
          <circle class="cls-5" cx="25.39" cy="93.19" r="8.3"/>
          <circle class="cls-3" cx="244.95" cy="22.96" r="10.37"/>
          <path class="cls-3" d="M54.43,121a3,3,0,1,1-3-3A3,3,0,0,1,54.43,121Z"/>
          <circle class="cls-3" cx="24.5" cy="189.48" r="8"/>
          <path class="cls-3" d="M97.69,194.81a1.48,1.48,0,1,1-1.48-1.48A1.49,1.49,0,0,1,97.69,194.81Z"/>
          <circle class="cls-3" cx="42.87" cy="25.93" r="9.78" transform="translate(7.79 61.7) rotate(-76.72)"/>
          <circle class="cls-3" cx="79.02" cy="46.07" r="2.07"/>
          <path class="cls-3" d="M207.91,95.85a5,5,0,1,1-5-5A5,5,0,0,1,207.91,95.85Z"/>
        </g>
        <path class="cls-5" d="M162.87,209.24a.42.42,0,0,1-.26-.08.49.49,0,0,1-.16-.68l66.37-106.67a.5.5,0,0,1,.69-.16.51.51,0,0,1,.16.69L163.3,209A.5.5,0,0,1,162.87,209.24Z"/>
        <path class="cls-5" d="M223.32,134a.48.48,0,0,1-.26-.07.5.5,0,0,1-.17-.69L296.08,12a.48.48,0,0,1,.68-.17.49.49,0,0,1,.17.68L223.75,133.74A.5.5,0,0,1,223.32,134Z"/>
      </g>
    </g>
    <g id="Cannabis">
      <path class="cls-3" d="M150.08,120.86a31.54,31.54,0,0,0-7.74-2.6,42.56,42.56,0,0,0,8.56-16.68,1.62,1.62,0,0,0-.44-1.48,1.58,1.58,0,0,0-1.14-.48,1.32,1.32,0,0,0-.34,0,42.93,42.93,0,0,0-16.17,8v-.44a44.56,44.56,0,0,0-6.3-21.92,1.59,1.59,0,0,0-1.35-.75,1.61,1.61,0,0,0-1.36.75,44.56,44.56,0,0,0-6.3,21.92v.44a42.86,42.86,0,0,0-16.17-8,1.32,1.32,0,0,0-.34,0,1.62,1.62,0,0,0-1.57,2A42.3,42.3,0,0,0,108,118.26a31.18,31.18,0,0,0-7.73,2.6,1.62,1.62,0,0,0-.68,2.18,1.73,1.73,0,0,0,.67.67,31.61,31.61,0,0,0,13.45,3.19c.61,0,1.2,0,1.76,0a27.54,27.54,0,0,0-1.69,3.95,1.59,1.59,0,0,0,.39,1.62,1.62,1.62,0,0,0,1.62.41,31.79,31.79,0,0,0,7.78-4v6.45a.81.81,0,0,0,.81.8H126a.8.8,0,0,0,.81-.8v-6.45a32,32,0,0,0,7.78,4,1.62,1.62,0,0,0,1.62-.41,1.6,1.6,0,0,0,.4-1.62,28.39,28.39,0,0,0-1.7-3.95q.84,0,1.77,0a31.59,31.59,0,0,0,13.44-3.19,1.6,1.6,0,0,0,.85-1.42A1.63,1.63,0,0,0,150.08,120.86Z"/>
    </g>
    <g id="Titulo">
      <text class="cls-6" transform="translate(229.74 200.18)">10% descue<tspan class="cls-7" x="149.73" y="0">n</tspan><tspan class="cls-8" x="166.26" y="0">t</tspan><tspan x="176.01" y="0">o en pipas</tspan></text>
    </g>
    <g id="Imagenes">
      <g id="imagen1">
        <image width="787" height="754" transform="translate(269.26 46.69) scale(0.15)" xlink:href="../img/pipa/p-metal.png"/>
      </g>
      <g id="imagen_2" data-name="imagen 2">
        <image width="588" height="597" transform="translate(406.21 15.92) scale(0.25)" xlink:href="../img/pipa/P-Wax-y-Herbal.png"/>
      </g>
    </g>
    <g id="Informacion">
      <g id="Rectangulo">
        <rect y="216" width="561.6" height="60.6"/>
      </g>
      <g id="Info">
        <g>
          <path class="cls-9" d="M39.46,229.38H35v4.13h5v1.24H33.52V223.29h6.19v1.24H35v3.62h4.46Z"/>
          <path class="cls-9" d="M41.63,233.22a3.92,3.92,0,0,0,2,.6c1.09,0,1.6-.55,1.6-1.23s-.42-1.1-1.53-1.51c-1.48-.53-2.17-1.34-2.17-2.33a2.53,2.53,0,0,1,2.83-2.41,4,4,0,0,1,2,.51L46,227.93a3.21,3.21,0,0,0-1.68-.47c-.88,0-1.38.51-1.38,1.12s.5,1,1.57,1.39c1.43.55,2.16,1.26,2.16,2.49,0,1.44-1.13,2.46-3.08,2.46a4.69,4.69,0,0,1-2.31-.56Z"/>
          <path class="cls-9" d="M54.43,234.44a5.41,5.41,0,0,1-2.36.48,3.91,3.91,0,0,1-4.1-4.2,4.19,4.19,0,0,1,4.42-4.37,4.91,4.91,0,0,1,2.08.43l-.34,1.15a3.54,3.54,0,0,0-1.74-.39,2.85,2.85,0,0,0-2.9,3.11,2.82,2.82,0,0,0,2.85,3.08,4.24,4.24,0,0,0,1.84-.41Z"/>
          <path class="cls-9" d="M56.18,229.09c0-1,0-1.8-.06-2.57h1.3l.06,1.62h.06a2.47,2.47,0,0,1,2.28-1.8,1.45,1.45,0,0,1,.43,0v1.41a2,2,0,0,0-.51-.05,2.1,2.1,0,0,0-2,1.92,4.59,4.59,0,0,0-.07.69v4.39H56.18Z"/>
          <path class="cls-9" d="M63.48,224.21a.93.93,0,0,1-1.86,0,.91.91,0,0,1,.94-.93A.88.88,0,0,1,63.48,224.21Zm-1.67,10.54v-8.23h1.5v8.23Z"/>
          <path class="cls-9" d="M65.72,234.75c0-.56.07-1.39.07-2.12v-9.95h1.48v5.17h0a3.07,3.07,0,0,1,2.81-1.51c2,0,3.48,1.7,3.46,4.19,0,2.95-1.85,4.41-3.69,4.41a2.92,2.92,0,0,1-2.75-1.55h0L67,234.75Zm1.55-3.3a3.19,3.19,0,0,0,.06.55,2.32,2.32,0,0,0,2.25,1.75c1.56,0,2.5-1.28,2.5-3.17,0-1.64-.85-3.05-2.45-3.05a2.38,2.38,0,0,0-2.28,1.83,3.35,3.35,0,0,0-.08.61Z"/>
          <path class="cls-9" d="M76.29,230.91a2.64,2.64,0,0,0,2.83,2.85,5.35,5.35,0,0,0,2.27-.42l.26,1.07a6.66,6.66,0,0,1-2.74.51,3.82,3.82,0,0,1-4-4.15c0-2.48,1.46-4.43,3.85-4.43,2.69,0,3.4,2.36,3.4,3.87a5.09,5.09,0,0,1-.05.7Zm4.39-1.07a2.13,2.13,0,0,0-2.07-2.43,2.48,2.48,0,0,0-2.3,2.43Z"/>
          <path class="cls-9" d="M88.42,230.91a2.63,2.63,0,0,0,2.82,2.85,5.35,5.35,0,0,0,2.27-.42l.26,1.07a6.66,6.66,0,0,1-2.74.51,3.82,3.82,0,0,1-4-4.15c0-2.48,1.46-4.43,3.86-4.43,2.68,0,3.4,2.36,3.4,3.87a4.77,4.77,0,0,1-.06.7Zm4.38-1.07a2.13,2.13,0,0,0-2.07-2.43,2.48,2.48,0,0,0-2.3,2.43Z"/>
          <path class="cls-9" d="M96.1,222.68h1.5v12.07H96.1Z"/>
          <path class="cls-9" d="M103.51,233.22a3.89,3.89,0,0,0,2,.6c1.09,0,1.6-.55,1.6-1.23s-.42-1.1-1.53-1.51c-1.48-.53-2.17-1.34-2.17-2.33a2.53,2.53,0,0,1,2.83-2.41,4,4,0,0,1,2,.51l-.38,1.08a3.24,3.24,0,0,0-1.68-.47c-.88,0-1.38.51-1.38,1.12s.5,1,1.57,1.39c1.42.55,2.16,1.26,2.16,2.49,0,1.44-1.13,2.46-3.08,2.46a4.66,4.66,0,0,1-2.31-.56Z"/>
          <path class="cls-9" d="M112.11,224.21a.88.88,0,0,1-1,.92.89.89,0,0,1-.9-.92.9.9,0,0,1,.93-.93A.88.88,0,0,1,112.11,224.21Zm-1.66,10.54v-8.23h1.49v8.23Z"/>
          <path class="cls-9" d="M121.51,226.52c0,.6-.06,1.26-.06,2.26v4.78c0,1.89-.38,3-1.18,3.76a4.39,4.39,0,0,1-3,1,5.35,5.35,0,0,1-2.74-.68l.38-1.14a4.61,4.61,0,0,0,2.41.65c1.53,0,2.65-.8,2.65-2.87v-.92h0a3,3,0,0,1-2.62,1.38c-2,0-3.5-1.74-3.5-4,0-2.78,1.82-4.36,3.71-4.36a2.72,2.72,0,0,1,2.56,1.42h0l.06-1.24ZM120,229.77a2,2,0,0,0-.09-.68,2.15,2.15,0,0,0-2.09-1.58c-1.43,0-2.45,1.21-2.45,3.11,0,1.61.82,3,2.43,3a2.2,2.2,0,0,0,2.08-1.53,2.82,2.82,0,0,0,.12-.8Z"/>
          <path class="cls-9" d="M130.81,232.51c0,.85,0,1.59.07,2.24h-1.33l-.08-1.34h0a3.12,3.12,0,0,1-2.72,1.53c-1.3,0-2.84-.72-2.84-3.61v-4.81h1.49v4.56c0,1.56.48,2.62,1.84,2.62a2.17,2.17,0,0,0,2-1.36,2.11,2.11,0,0,0,.14-.77v-5h1.49Z"/>
          <path class="cls-9" d="M135,224.21a.93.93,0,0,1-1.85,0,.9.9,0,0,1,.93-.93A.88.88,0,0,1,135,224.21Zm-1.67,10.54v-8.23h1.5v8.23Z"/>
          <path class="cls-9" d="M138.11,230.91a2.63,2.63,0,0,0,2.82,2.85,5.43,5.43,0,0,0,2.28-.42l.25,1.07a6.66,6.66,0,0,1-2.74.51,3.82,3.82,0,0,1-4-4.15c0-2.48,1.46-4.43,3.86-4.43,2.68,0,3.4,2.36,3.4,3.87a4.77,4.77,0,0,1-.06.7Zm4.38-1.07a2.13,2.13,0,0,0-2.07-2.43,2.48,2.48,0,0,0-2.3,2.43Z"/>
          <path class="cls-9" d="M145.79,228.75c0-.85,0-1.55-.07-2.23h1.33l.08,1.36h0a3,3,0,0,1,2.72-1.54c1.14,0,2.9.68,2.9,3.5v4.91H151.3V230c0-1.33-.5-2.43-1.91-2.43a2.11,2.11,0,0,0-2,1.53,2,2,0,0,0-.1.69v4.95h-1.5Z"/>
          <path class="cls-9" d="M157,224.16v2.36h2.14v1.14H157v4.44c0,1,.29,1.6,1.12,1.6a3,3,0,0,0,.87-.11l.07,1.13a3.91,3.91,0,0,1-1.33.2,2.08,2.08,0,0,1-1.62-.63,3.06,3.06,0,0,1-.57-2.14v-4.49h-1.28v-1.14h1.28v-2Z"/>
          <path class="cls-9" d="M161.51,230.91a2.64,2.64,0,0,0,2.83,2.85,5.35,5.35,0,0,0,2.27-.42l.26,1.07a6.66,6.66,0,0,1-2.74.51,3.82,3.82,0,0,1-4-4.15c0-2.48,1.46-4.43,3.86-4.43,2.68,0,3.4,2.36,3.4,3.87a4.77,4.77,0,0,1-.06.7Zm4.39-1.07a2.13,2.13,0,0,0-2.07-2.43,2.48,2.48,0,0,0-2.3,2.43Z"/>
          <path class="cls-9" d="M178.67,234.44a5.42,5.42,0,0,1-2.37.48,3.9,3.9,0,0,1-4.09-4.2,4.18,4.18,0,0,1,4.42-4.37,4.9,4.9,0,0,1,2.07.43l-.34,1.15a3.52,3.52,0,0,0-1.73-.39,2.85,2.85,0,0,0-2.91,3.11,2.82,2.82,0,0,0,2.86,3.08,4.15,4.15,0,0,0,1.83-.41Z"/>
          <path class="cls-9" d="M187.76,230.57a4,4,0,0,1-4.09,4.37,3.92,3.92,0,0,1-3.95-4.24,4,4,0,0,1,4.08-4.36A3.89,3.89,0,0,1,187.76,230.57Zm-6.53.08c0,1.81,1,3.17,2.5,3.17s2.5-1.35,2.5-3.2c0-1.39-.69-3.16-2.46-3.16S181.23,229.09,181.23,230.65Z"/>
          <path class="cls-9" d="M196.76,222.68v9.95c0,.73,0,1.56.06,2.12h-1.34l-.07-1.43h0a3,3,0,0,1-2.81,1.62c-2,0-3.51-1.69-3.51-4.18,0-2.74,1.68-4.42,3.68-4.42a2.77,2.77,0,0,1,2.49,1.25h0v-4.91Zm-1.5,7.19a2.7,2.7,0,0,0-.07-.63,2.2,2.2,0,0,0-2.16-1.73c-1.54,0-2.46,1.36-2.46,3.18,0,1.66.81,3,2.43,3a2.24,2.24,0,0,0,2.19-1.78,2.7,2.7,0,0,0,.07-.65Z"/>
          <path class="cls-9" d="M200.9,224.21a.88.88,0,0,1-1,.92.89.89,0,0,1-.9-.92.91.91,0,0,1,.94-.93A.88.88,0,0,1,200.9,224.21Zm-1.66,10.54v-8.23h1.49v8.23Z"/>
          <path class="cls-9" d="M210.3,226.52c0,.6-.06,1.26-.06,2.26v4.78c0,1.89-.38,3-1.18,3.76a4.39,4.39,0,0,1-3,1,5.38,5.38,0,0,1-2.74-.68l.38-1.14a4.61,4.61,0,0,0,2.41.65c1.53,0,2.65-.8,2.65-2.87v-.92h0a3,3,0,0,1-2.62,1.38c-2,0-3.5-1.74-3.5-4,0-2.78,1.82-4.36,3.71-4.36a2.72,2.72,0,0,1,2.56,1.42h0l.07-1.24Zm-1.54,3.25a2,2,0,0,0-.09-.68,2.15,2.15,0,0,0-2.09-1.58c-1.43,0-2.45,1.21-2.45,3.11,0,1.61.82,3,2.43,3a2.19,2.19,0,0,0,2.08-1.53,2.82,2.82,0,0,0,.12-.8Z"/>
          <path class="cls-9" d="M220.16,230.57a4,4,0,0,1-4.09,4.37,3.92,3.92,0,0,1-3.95-4.24,4,4,0,0,1,4.08-4.36A3.89,3.89,0,0,1,220.16,230.57Zm-6.52.08c0,1.81,1,3.17,2.5,3.17s2.49-1.35,2.49-3.2c0-1.39-.69-3.16-2.46-3.16S213.64,229.09,213.64,230.65Z"/>
          <path class="cls-9" d="M230.21,234.75l-.12-1H230a3.05,3.05,0,0,1-2.51,1.23,2.35,2.35,0,0,1-2.52-2.37c0-2,1.77-3.07,5-3.06v-.17a1.7,1.7,0,0,0-1.87-1.9,4.16,4.16,0,0,0-2.15.61l-.34-1a5.14,5.14,0,0,1,2.71-.73c2.51,0,3.13,1.71,3.13,3.36v3.08a11.83,11.83,0,0,0,.13,2Zm-.22-4.2c-1.63,0-3.48.26-3.48,1.85a1.32,1.32,0,0,0,1.41,1.43,2.05,2.05,0,0,0,2-1.37A1.66,1.66,0,0,0,230,232Z"/>
          <path class="cls-9" d="M237.45,228.75c0-.85,0-1.55-.06-2.23h1.32l.09,1.36h0a3,3,0,0,1,2.72-1.54c1.14,0,2.91.68,2.91,3.5v4.91H243V230c0-1.33-.49-2.43-1.9-2.43a2.12,2.12,0,0,0-2,1.53,2,2,0,0,0-.1.69v4.95h-1.5Z"/>
          <path class="cls-9" d="M253.77,232.51c0,.85,0,1.59.07,2.24h-1.32l-.09-1.34h0a3.1,3.1,0,0,1-2.72,1.53c-1.3,0-2.84-.72-2.84-3.61v-4.81h1.49v4.56c0,1.56.48,2.62,1.84,2.62a2.17,2.17,0,0,0,2-1.36,2.11,2.11,0,0,0,.14-.77v-5h1.49Z"/>
          <path class="cls-9" d="M257.09,230.91a2.63,2.63,0,0,0,2.82,2.85,5.4,5.4,0,0,0,2.28-.42l.25,1.07a6.56,6.56,0,0,1-2.73.51,3.82,3.82,0,0,1-4-4.15c0-2.48,1.46-4.43,3.86-4.43,2.69,0,3.4,2.36,3.4,3.87,0,.31,0,.55-.05.7Zm4.38-1.07a2.13,2.13,0,0,0-2.07-2.43,2.47,2.47,0,0,0-2.29,2.43Z"/>
          <path class="cls-9" d="M264.57,233.22a3.89,3.89,0,0,0,2,.6c1.09,0,1.6-.55,1.6-1.23s-.43-1.1-1.53-1.51c-1.48-.53-2.18-1.34-2.18-2.33,0-1.33,1.07-2.41,2.84-2.41a4,4,0,0,1,2,.51l-.37,1.08a3.24,3.24,0,0,0-1.68-.47c-.89,0-1.38.51-1.38,1.12s.49,1,1.56,1.39c1.43.55,2.16,1.26,2.16,2.49,0,1.44-1.12,2.46-3.07,2.46a4.73,4.73,0,0,1-2.32-.56Z"/>
          <path class="cls-9" d="M273.31,224.16v2.36h2.14v1.14h-2.14v4.44c0,1,.29,1.6,1.12,1.6a2.84,2.84,0,0,0,.86-.11l.07,1.13a3.84,3.84,0,0,1-1.32.2,2.08,2.08,0,0,1-1.62-.63,3.06,3.06,0,0,1-.58-2.14v-4.49h-1.27v-1.14h1.27v-2Z"/>
          <path class="cls-9" d="M277.13,229.09c0-1,0-1.8-.07-2.57h1.31l.05,1.62h.07a2.47,2.47,0,0,1,2.28-1.8,1.34,1.34,0,0,1,.42,0v1.41a1.91,1.91,0,0,0-.51-.05,2.09,2.09,0,0,0-2,1.92,3.58,3.58,0,0,0-.07.69v4.39h-1.48Z"/>
          <path class="cls-9" d="M290,230.57a4,4,0,0,1-4.1,4.37,3.92,3.92,0,0,1-3.95-4.24,4,4,0,0,1,4.08-4.36A3.89,3.89,0,0,1,290,230.57Zm-6.53.08c0,1.81,1,3.17,2.5,3.17s2.5-1.35,2.5-3.2c0-1.39-.7-3.16-2.47-3.16S283.44,229.09,283.44,230.65Z"/>
          <path class="cls-9" d="M291.65,233.22a3.89,3.89,0,0,0,2,.6c1.09,0,1.6-.55,1.6-1.23s-.43-1.1-1.53-1.51c-1.48-.53-2.18-1.34-2.18-2.33,0-1.33,1.07-2.41,2.84-2.41a4.06,4.06,0,0,1,2,.51l-.38,1.08a3.24,3.24,0,0,0-1.68-.47c-.89,0-1.38.51-1.38,1.12s.49,1,1.56,1.39c1.43.55,2.16,1.26,2.16,2.49,0,1.44-1.12,2.46-3.07,2.46a4.66,4.66,0,0,1-2.31-.56Z"/>
          <path class="cls-9" d="M306.75,234.75l-.12-1h-.06a3,3,0,0,1-2.51,1.23,2.35,2.35,0,0,1-2.52-2.37c0-2,1.77-3.07,4.95-3.06v-.17a1.7,1.7,0,0,0-1.87-1.9,4.12,4.12,0,0,0-2.14.61l-.34-1a5.11,5.11,0,0,1,2.7-.73c2.52,0,3.13,1.71,3.13,3.36v3.08a11.83,11.83,0,0,0,.13,2Zm-.23-4.2c-1.63,0-3.48.26-3.48,1.85a1.32,1.32,0,0,0,1.41,1.43,2.05,2.05,0,0,0,2-1.37,1.66,1.66,0,0,0,.08-.48Z"/>
          <path class="cls-9" d="M310.18,233.22a3.89,3.89,0,0,0,2,.6c1.09,0,1.6-.55,1.6-1.23s-.43-1.1-1.53-1.51c-1.48-.53-2.18-1.34-2.18-2.33,0-1.33,1.07-2.41,2.84-2.41a4.06,4.06,0,0,1,2,.51l-.38,1.08a3.24,3.24,0,0,0-1.68-.47c-.89,0-1.38.51-1.38,1.12s.49,1,1.57,1.39c1.42.55,2.15,1.26,2.15,2.49,0,1.44-1.12,2.46-3.07,2.46a4.66,4.66,0,0,1-2.31-.56Z"/>
          <path class="cls-9" d="M318,230.91a2.63,2.63,0,0,0,2.82,2.85,5.4,5.4,0,0,0,2.28-.42l.25,1.07a6.6,6.6,0,0,1-2.73.51,3.82,3.82,0,0,1-4.05-4.15c0-2.48,1.46-4.43,3.86-4.43,2.68,0,3.4,2.36,3.4,3.87,0,.31,0,.55,0,.7Zm4.38-1.07a2.13,2.13,0,0,0-2.07-2.43,2.48,2.48,0,0,0-2.3,2.43Z"/>
          <path class="cls-9" d="M325.43,233.22a3.89,3.89,0,0,0,2,.6c1.09,0,1.6-.55,1.6-1.23s-.43-1.1-1.53-1.51c-1.48-.53-2.18-1.34-2.18-2.33,0-1.33,1.07-2.41,2.84-2.41a4,4,0,0,1,2,.51l-.37,1.08a3.24,3.24,0,0,0-1.68-.47c-.89,0-1.38.51-1.38,1.12s.49,1,1.56,1.39c1.43.55,2.16,1.26,2.16,2.49,0,1.44-1.12,2.46-3.07,2.46a4.7,4.7,0,0,1-2.32-.56Z"/>
          <path class="cls-9" d="M339.81,230.57a4,4,0,0,1-4.1,4.37,3.91,3.91,0,0,1-3.94-4.24,4,4,0,0,1,4.08-4.36A3.89,3.89,0,0,1,339.81,230.57Zm-6.53.08c0,1.81,1,3.17,2.5,3.17s2.5-1.35,2.5-3.2c0-1.39-.7-3.16-2.47-3.16S333.28,229.09,333.28,230.65Z"/>
          <path class="cls-9" d="M341.7,229.09c0-1,0-1.8-.07-2.57h1.31l.05,1.62h.07a2.45,2.45,0,0,1,2.27-1.8,1.45,1.45,0,0,1,.43,0v1.41a2,2,0,0,0-.51-.05,2.1,2.1,0,0,0-2,1.92,4.59,4.59,0,0,0-.07.69v4.39H341.7Z"/>
          <path class="cls-9" d="M347.92,230.91a2.63,2.63,0,0,0,2.82,2.85,5.4,5.4,0,0,0,2.28-.42l.25,1.07a6.6,6.6,0,0,1-2.73.51,3.82,3.82,0,0,1-4.05-4.15c0-2.48,1.46-4.43,3.86-4.43,2.68,0,3.4,2.36,3.4,3.87,0,.31,0,.55-.05.7Zm4.38-1.07a2.13,2.13,0,0,0-2.07-2.43,2.48,2.48,0,0,0-2.3,2.43Z"/>
          <path class="cls-9" d="M355.4,233.22a3.89,3.89,0,0,0,2,.6c1.09,0,1.6-.55,1.6-1.23s-.43-1.1-1.53-1.51c-1.48-.53-2.18-1.34-2.18-2.33,0-1.33,1.07-2.41,2.84-2.41a4,4,0,0,1,2,.51l-.37,1.08a3.24,3.24,0,0,0-1.68-.47c-.89,0-1.38.51-1.38,1.12s.49,1,1.56,1.39c1.43.55,2.16,1.26,2.16,2.49,0,1.44-1.12,2.46-3.08,2.46a4.69,4.69,0,0,1-2.31-.56Z"/>
          <path class="cls-9" d="M365.94,229.21c0-1.06,0-1.91-.07-2.69h1.34l.07,1.41h0a3.25,3.25,0,0,1,2.93-1.59c2,0,3.48,1.68,3.48,4.18,0,3-1.8,4.42-3.74,4.42a2.89,2.89,0,0,1-2.53-1.29h0v4.47h-1.48Zm1.48,2.19a3.71,3.71,0,0,0,.06.61,2.32,2.32,0,0,0,2.25,1.75c1.58,0,2.5-1.29,2.5-3.18,0-1.64-.87-3.05-2.45-3.05a2.39,2.39,0,0,0-2.26,1.85,2.51,2.51,0,0,0-.1.61Z"/>
          <path class="cls-9" d="M380.17,234.75l-.12-1H380a3.07,3.07,0,0,1-2.52,1.23,2.35,2.35,0,0,1-2.52-2.37c0-2,1.77-3.07,5-3.06v-.17a1.7,1.7,0,0,0-1.87-1.9,4.15,4.15,0,0,0-2.14.61l-.34-1a5.11,5.11,0,0,1,2.7-.73c2.52,0,3.13,1.71,3.13,3.36v3.08a10.79,10.79,0,0,0,.14,2Zm-.23-4.2c-1.63,0-3.48.26-3.48,1.85a1.33,1.33,0,0,0,1.41,1.43,2.05,2.05,0,0,0,2-1.37,1.66,1.66,0,0,0,.08-.48Z"/>
          <path class="cls-9" d="M383.8,229.09c0-1,0-1.8-.06-2.57H385l.06,1.62h.06a2.47,2.47,0,0,1,2.28-1.8,1.45,1.45,0,0,1,.43,0v1.41a2,2,0,0,0-.51-.05,2.1,2.1,0,0,0-2,1.92,4.59,4.59,0,0,0-.07.69v4.39H383.8Z"/>
          <path class="cls-9" d="M393.83,234.75l-.12-1h0a3,3,0,0,1-2.51,1.23,2.35,2.35,0,0,1-2.52-2.37c0-2,1.77-3.07,4.95-3.06v-.17a1.7,1.7,0,0,0-1.87-1.9,4.09,4.09,0,0,0-2.14.61l-.34-1a5.11,5.11,0,0,1,2.7-.73c2.52,0,3.13,1.71,3.13,3.36v3.08a11.83,11.83,0,0,0,.13,2Zm-.22-4.2c-1.63,0-3.48.26-3.48,1.85a1.32,1.32,0,0,0,1.41,1.43,2.05,2.05,0,0,0,2-1.37,1.66,1.66,0,0,0,.08-.48Z"/>
          <path class="cls-9" d="M405.63,234.75l-.12-1h-.05a3.05,3.05,0,0,1-2.51,1.23,2.35,2.35,0,0,1-2.52-2.37c0-2,1.77-3.07,4.95-3.06v-.17a1.7,1.7,0,0,0-1.87-1.9,4.09,4.09,0,0,0-2.14.61l-.35-1a5.17,5.17,0,0,1,2.71-.73c2.51,0,3.13,1.71,3.13,3.36v3.08a11.83,11.83,0,0,0,.13,2Zm-.22-4.2c-1.63,0-3.48.26-3.48,1.85a1.32,1.32,0,0,0,1.41,1.43,2.05,2.05,0,0,0,2-1.37,1.66,1.66,0,0,0,.08-.48Z"/>
          <path class="cls-9" d="M409.27,229.21c0-1.06,0-1.91-.07-2.69h1.34l.07,1.41h0a3.23,3.23,0,0,1,2.92-1.59c2,0,3.49,1.68,3.49,4.18,0,3-1.81,4.42-3.74,4.42a2.92,2.92,0,0,1-2.54-1.29h0v4.47h-1.48Zm1.48,2.19a2.84,2.84,0,0,0,.07.61,2.3,2.3,0,0,0,2.24,1.75c1.58,0,2.5-1.29,2.5-3.18,0-1.64-.87-3.05-2.45-3.05a2.39,2.39,0,0,0-2.26,1.85,2.51,2.51,0,0,0-.1.61Z"/>
          <path class="cls-9" d="M418.94,222.68h1.5v12.07h-1.5Z"/>
          <path class="cls-9" d="M424.62,224.21a.93.93,0,0,1-1.85,0,.9.9,0,0,1,.93-.93A.88.88,0,0,1,424.62,224.21ZM423,234.75v-8.23h1.49v8.23Z"/>
          <path class="cls-9" d="M432.8,234.44a5.42,5.42,0,0,1-2.37.48,3.9,3.9,0,0,1-4.09-4.2,4.18,4.18,0,0,1,4.42-4.37,4.9,4.9,0,0,1,2.07.43l-.34,1.15a3.52,3.52,0,0,0-1.73-.39,2.85,2.85,0,0,0-2.91,3.11,2.82,2.82,0,0,0,2.86,3.08,4.15,4.15,0,0,0,1.83-.41Z"/>
          <path class="cls-9" d="M439.1,234.75l-.11-1h-.06a3.05,3.05,0,0,1-2.51,1.23,2.35,2.35,0,0,1-2.52-2.37c0-2,1.77-3.07,5-3.06v-.17a1.7,1.7,0,0,0-1.87-1.9,4.12,4.12,0,0,0-2.14.61l-.34-1a5.11,5.11,0,0,1,2.7-.73c2.52,0,3.13,1.71,3.13,3.36v3.08a11.83,11.83,0,0,0,.13,2Zm-.22-4.2c-1.63,0-3.48.26-3.48,1.85a1.32,1.32,0,0,0,1.41,1.43,2.05,2.05,0,0,0,2-1.37,1.66,1.66,0,0,0,.08-.48Z"/>
          <path class="cls-9" d="M442.74,229.09c0-1,0-1.8-.07-2.57H444l.06,1.62h.06a2.47,2.47,0,0,1,2.28-1.8,1.45,1.45,0,0,1,.43,0v1.41a2,2,0,0,0-.51-.05,2.1,2.1,0,0,0-2,1.92,4.59,4.59,0,0,0-.07.69v4.39h-1.48Z"/>
          <path class="cls-9" d="M456.46,234.75l-.12-1h0a3.06,3.06,0,0,1-2.52,1.23,2.35,2.35,0,0,1-2.51-2.37c0-2,1.77-3.07,4.95-3.06v-.17a1.7,1.7,0,0,0-1.87-1.9,4.16,4.16,0,0,0-2.15.61l-.34-1a5.14,5.14,0,0,1,2.71-.73c2.51,0,3.12,1.71,3.12,3.36v3.08a11.77,11.77,0,0,0,.14,2Zm-.22-4.2c-1.63,0-3.49.26-3.49,1.85a1.33,1.33,0,0,0,1.42,1.43,2,2,0,0,0,2-1.37,1.4,1.4,0,0,0,.09-.48Z"/>
          <path class="cls-9" d="M460.1,222.68h1.49v12.07H460.1Z"/>
          <path class="cls-9" d="M474.82,222.68v9.95c0,.73,0,1.56.07,2.12h-1.35l-.06-1.43h0a3,3,0,0,1-2.8,1.62c-2,0-3.52-1.69-3.52-4.18,0-2.74,1.68-4.42,3.69-4.42a2.74,2.74,0,0,1,2.48,1.25h0v-4.91Zm-1.5,7.19a2.69,2.69,0,0,0-.06-.63,2.2,2.2,0,0,0-2.16-1.73c-1.55,0-2.47,1.36-2.47,3.18,0,1.66.82,3,2.43,3a2.25,2.25,0,0,0,2.2-1.78,2.71,2.71,0,0,0,.06-.65Z"/>
          <path class="cls-9" d="M478.14,230.91a2.63,2.63,0,0,0,2.82,2.85,5.35,5.35,0,0,0,2.27-.42l.26,1.07a6.66,6.66,0,0,1-2.74.51,3.82,3.82,0,0,1-4-4.15c0-2.48,1.46-4.43,3.86-4.43,2.68,0,3.4,2.36,3.4,3.87,0,.31,0,.55-.05.7Zm4.38-1.07a2.13,2.13,0,0,0-2.07-2.43,2.48,2.48,0,0,0-2.3,2.43Z"/>
          <path class="cls-9" d="M485.62,233.22a3.89,3.89,0,0,0,2,.6c1.08,0,1.59-.55,1.59-1.23s-.42-1.1-1.52-1.51c-1.48-.53-2.18-1.34-2.18-2.33,0-1.33,1.07-2.41,2.84-2.41a4,4,0,0,1,2,.51l-.37,1.08a3.28,3.28,0,0,0-1.69-.47c-.88,0-1.37.51-1.37,1.12s.49,1,1.56,1.39c1.43.55,2.16,1.26,2.16,2.49,0,1.44-1.12,2.46-3.08,2.46a4.69,4.69,0,0,1-2.31-.56Z"/>
          <path class="cls-9" d="M498.42,234.44a5.46,5.46,0,0,1-2.37.48,3.9,3.9,0,0,1-4.09-4.2,4.18,4.18,0,0,1,4.42-4.37,4.9,4.9,0,0,1,2.07.43l-.34,1.15a3.52,3.52,0,0,0-1.73-.39,2.85,2.85,0,0,0-2.91,3.11,2.82,2.82,0,0,0,2.86,3.08,4.19,4.19,0,0,0,1.83-.41Z"/>
          <path class="cls-9" d="M507.05,232.51c0,.85,0,1.59.07,2.24h-1.33l-.08-1.34h0a3.08,3.08,0,0,1-2.71,1.53c-1.3,0-2.84-.72-2.84-3.61v-4.81h1.49v4.56c0,1.56.48,2.62,1.84,2.62a2.17,2.17,0,0,0,2-1.36,2.34,2.34,0,0,0,.14-.77v-5h1.49Z"/>
          <path class="cls-9" d="M510.37,230.91a2.63,2.63,0,0,0,2.82,2.85,5.4,5.4,0,0,0,2.28-.42l.25,1.07a6.6,6.6,0,0,1-2.73.51,3.82,3.82,0,0,1-4.05-4.15c0-2.48,1.46-4.43,3.86-4.43,2.68,0,3.4,2.36,3.4,3.87,0,.31,0,.55-.05.7Zm4.38-1.07a2.13,2.13,0,0,0-2.07-2.43,2.48,2.48,0,0,0-2.3,2.43Z"/>
          <path class="cls-9" d="M518.05,228.75c0-.85,0-1.55-.07-2.23h1.33l.08,1.36h0a3,3,0,0,1,2.72-1.54c1.14,0,2.9.68,2.9,3.5v4.91h-1.49V230c0-1.33-.49-2.43-1.9-2.43a2.11,2.11,0,0,0-2,1.53,2,2,0,0,0-.1.69v4.95h-1.5Z"/>
          <path class="cls-9" d="M529.22,224.16v2.36h2.14v1.14h-2.14v4.44c0,1,.29,1.6,1.12,1.6a3,3,0,0,0,.87-.11l.07,1.13a3.91,3.91,0,0,1-1.33.2,2,2,0,0,1-1.61-.63,3,3,0,0,1-.58-2.14v-4.49h-1.28v-1.14h1.28v-2Z"/>
          <path class="cls-9" d="M540.39,230.57a4,4,0,0,1-4.1,4.37,3.91,3.91,0,0,1-3.94-4.24,4,4,0,0,1,4.08-4.36A3.89,3.89,0,0,1,540.39,230.57Zm-6.53.08c0,1.81,1,3.17,2.5,3.17s2.5-1.35,2.5-3.2c0-1.39-.7-3.16-2.47-3.16S533.86,229.09,533.86,230.65Z"/>
        </g>
      </g>
    </g>
    <g id="Codigo">
      <text class="cls-10" transform="translate(209.07 272.57)">P1<tspan class="cls-11" x="38.66" y="0">P</tspan><tspan class="cls-12" x="55.24" y="0">A5</tspan></text>
    </g>
  </g>
</svg>
