<svg xmlns="http://www.w3.org/2000/svg" xmlns:xlink="http://www.w3.org/1999/xlink" viewBox="0 0 443.6 233.04">
  <defs>
    <style>
      .cls-1, .cls-30 {
        fill: #388321;
      }

      .cls-2 {
        fill: #664a26;
      }

      .cls-3 {
        fill: #4d962f;
      }

      .cls-4 {
        fill: #59c136;
      }

      .cls-5 {
        fill: #81a61c;
      }

      .cls-6 {
        fill: #aa6c64;
      }

      .cls-7 {
        fill: url(#Degradado_sin_nombre_3);
      }

      .cls-8 {
        fill: url(#Degradado_sin_nombre_4);
      }

      .cls-9 {
        fill: url(#Degradado_sin_nombre_5);
      }

      .cls-10 {
        fill: #936c51;
      }

      .cls-11 {
        fill: #b4654b;
      }

      .cls-12 {
        fill: #e89751;
      }

      .cls-13 {
        fill: #802e20;
      }

      .cls-14 {
        fill: #392c45;
      }

      .cls-15 {
        fill: #a6a229;
      }

      .cls-16 {
        fill: #9f7558;
      }

      .cls-17 {
        fill: #853429;
      }

      .cls-18 {
        fill: #85322e;
      }

      .cls-19 {
        fill: #8e78a5;
      }

      .cls-20 {
        fill: #b7746b;
      }

      .cls-21 {
        fill: #5f3540;
      }

      .cls-22 {
        fill: #a15b52;
      }

      .cls-23 {
        fill: #71281e;
      }

      .cls-24 {
        fill: #f1bf52;
      }

      .cls-25 {
        fill: #f1e265;
      }

      .cls-26 {
        fill: #8a2f00;
      }

      .cls-27 {
        fill: url(#Degradado_sin_nombre_66);
      }

      .cls-28 {
        fill: #857e1d;
      }

      .cls-29 {
        fill: #b4bd38;
      }

      .cls-30 {
        opacity: 0.46;
      }

      .cls-30, .cls-31, .cls-32, .cls-33 {
        isolation: isolate;
      }

      .cls-31 {
        font-size: 14px;
        fill: #f8fff9;
      }

      .cls-31, .cls-32, .cls-33, .cls-35 {
        font-family: ComicSansMS, Comic Sans MS;
      }

      .cls-32 {
        font-size: 15px;
        fill: #fffbc4;
      }

      .cls-33 {
        font-size: 26px;
      }

      .cls-33, .cls-35 {
        fill: #fff;
      }

      .cls-34 {
        fill: #cfffbb;
      }

      .cls-35 {
        font-size: 24px;
      }
    </style>
    <linearGradient id="Degradado_sin_nombre_3" data-name="Degradado sin nombre 3" x1="54.59" y1="119.05" x2="263.12" y2="14.15" gradientTransform="matrix(1, 0, 0, -1, -4.68, 169.36)" gradientUnits="userSpaceOnUse">
      <stop offset="0" stop-color="#dbc956"/>
      <stop offset="1" stop-color="#c5b44f"/>
    </linearGradient>
    <linearGradient id="Degradado_sin_nombre_4" data-name="Degradado sin nombre 4" x1="53.46" y1="60.68" x2="315.31" y2="56.02" gradientTransform="matrix(1, 0, 0, -1, 0, 109.84)" gradientUnits="userSpaceOnUse">
      <stop offset="0" stop-color="#ede1ab"/>
      <stop offset="1" stop-color="#e3d081"/>
    </linearGradient>
    <linearGradient id="Degradado_sin_nombre_5" data-name="Degradado sin nombre 5" x1="175.8" y1="-14.18" x2="175.8" y2="129.15" gradientTransform="matrix(1, 0, 0, -1, -4.68, 169.36)" gradientUnits="userSpaceOnUse">
      <stop offset="0" stop-color="#edda85"/>
      <stop offset="1" stop-color="#e3d081"/>
    </linearGradient>
    <linearGradient id="Degradado_sin_nombre_66" data-name="Degradado sin nombre 66" x1="42.41" y1="-65.96" x2="56.34" y2="-65.96" gradientTransform="matrix(1, 0, 0, -1, 0, 109.84)" gradientUnits="userSpaceOnUse">
      <stop offset="0" stop-color="#ea9e52"/>
      <stop offset="1" stop-color="#e34f00"/>
    </linearGradient>
  </defs>
  <g id="Tienda">
    <g id="Layer_1" data-name="Layer 1">
      <g>
        <path class="cls-1" d="M381,149.21c-.18.7-6.63,8.43-13.44,6.69s-9.13,6.38-15.23,6.07c-5.07-.26-7.41-7.63-8-10.08.22,1.24.29,3.44-2.16,3.07-3.38-.51-.54-6.62.36-7.69s2-8.61-.36-11.6a18,18,0,0,1-2.29-4.94A50.42,50.42,0,0,1,337.23,117c0-5.56,8.06-9,16.48-7.18s2.87,12,4.13,17.38,2,.9,15.77,0S381.13,148.5,381,149.21Z" transform="translate(-4.68 -4.56)"/>
        <path class="cls-2" d="M349.77,120.73s-3.06,18.46,3.05,26S357.64,179,354.61,184h4.3s-1.25-22,0-30.08,16.31-13.54,16.31-13.54S361.6,143.9,357.3,153c0,0-5.91-7.6-.54-10.62,0,0-2.87.2-3.4,2.26s-5.56-8.32-1.44-12.54h0a2.6,2.6,0,0,1-1.85-2.41Z" transform="translate(-4.68 -4.56)"/>
        <path class="cls-3" d="M381.87,145c-.41,2.33-.88,4-.92,4.17-5.91,1.44-12.3-1.11-11.25-6.82s-6.35-5.1-7.58-2.72-11.27-.48-10.73-4,4.71-5.75-1.32-6c-4.38-.14-7.74,2.36-10.29,1a52,52,0,0,1-2.54-13.08V117c0-5.56,8.06-9,16.48-7.17,6,1.27,4.93,6.75,4.25,11.75a16.81,16.81,0,0,0-.13,5.62c.68,2.89,1.2,2.92,3.68,2.19a49.72,49.72,0,0,1,12.09-2.19C383.79,126.5,383,138.46,381.87,145Z" transform="translate(-4.68 -4.56)"/>
        <path class="cls-4" d="M358,121.55c-2.19-.7-5.49-1.15-10.51-.82-5.64.37-8.7-1-10.21-3.1V117c0-5.56,8.06-9,16.49-7.17C359.68,111.07,358.64,116.55,358,121.55Z" transform="translate(-4.68 -4.56)"/>
        <path class="cls-4" d="M381.87,145c-1.19-4.38-4.1-9.07-10.95-10.3-6.29-1.12-8.67-3.31-9.41-5.36a49.8,49.8,0,0,1,12.09-2.19C383.79,126.5,383,138.46,381.87,145Z" transform="translate(-4.68 -4.56)"/>
        <path class="cls-5" d="M382.61,152.57c0,.58-.07,1-.08,1.06Z" transform="translate(-4.68 -4.56)"/>
      </g>
      <g>
        <path class="cls-1" d="M4.84,142.1v3.49a1.57,1.57,0,0,0,0,.48c.06.63.14,1.25.23,1.85,0,.26.07.51.11.76v.1a2.7,2.7,0,0,0,.07.41l0,.24c.06.32.12.64.18.93a2.29,2.29,0,0,0,.07.36c0,.24.1.46.14.68s.09.4.14.58c.12.56.23,1,.3,1.27a.63.63,0,0,0,.07.22c0,.05,0,.11,0,.14.17.68,6.62,8.43,13.44,6.68s9.14,6.4,15.23,6.08c5.08-.26,7.76-6.66,10.23-7,1.55-.23,2.69-7.07,3.48-14.94.85-8.46,1.28-18.14,1.37-22.06h0v-1c0-5.55-8.07-9-16.49-7.16a1.05,1.05,0,0,0-.34.08,5.91,5.91,0,0,0-.69.19l-.3.11-.56.25a4.08,4.08,0,0,0-.5.29,4.37,4.37,0,0,0-.44.31,5.11,5.11,0,0,0-.73.74c-.1.13-.2.26-.29.4a6.13,6.13,0,0,0-.83,2.41,10.23,10.23,0,0,0-.12,1.75c0,.6.05,1.22.1,1.86a5.46,5.46,0,0,0,.08.68c.05.44.11.89.17,1.37l.1.79c.07.5.14,1,.2,1.5h0c.07.56.13,1.12.16,1.66v1.54a2.64,2.64,0,0,1,0,.57,8.3,8.3,0,0,1-.14.87,4.61,4.61,0,0,1-.94,2.29,1.37,1.37,0,0,1-1.24.29,2.41,2.41,0,0,1-.56-.11h-.11l-.26-.06h-.1l-.35-.24-.15,0-.43-.13-.33-.09-.34-.1a47.55,47.55,0,0,0-4.72-1.11l-.69-.12-.35-.05L18.2,132c-1.31-.19-2.79-.35-4.46-.46a9.3,9.3,0,0,0-3.63.4,7.28,7.28,0,0,0-.77.31,6.64,6.64,0,0,0-1.51,1c-.11.1-.22.2-.32.31l-.3.32c-.09.11-.29.36-.43.56a13.12,13.12,0,0,0-1.92,6.66C4.86,141.45,4.86,141.78,4.84,142.1Z" transform="translate(-4.68 -4.56)"/>
        <path class="cls-2" d="M37.6,125.12s3,18.46-3.05,26-4.84,32.26-1.79,37.26h-4.3s1.25-22,0-30.08-16.31-13.56-16.31-13.56,13.65,3.55,17.93,12.66c0,0,5.9-7.59.53-10.62,0,0,2.87.2,3.41,2.26s5.56-8.33,1.44-12.54h0a2.61,2.61,0,0,0,1.87-2.39Z" transform="translate(-4.68 -4.56)"/>
        <path class="cls-1" d="M4.84,142.1v3.49a1.57,1.57,0,0,0,0,.48c.06.63.14,1.25.23,1.85,0,.26.07.51.11.76v.1a2.7,2.7,0,0,0,.07.41l0,.24c.06.32.12.64.18.93a2.29,2.29,0,0,0,.07.36c0,.24.1.46.14.68s.09.41.14.58c.12.56.23,1,.3,1.27a.63.63,0,0,0,.07.22c0,.05,0,.11,0,.14,3,.74,16.47.07,28.14-3l.23-.07c5.51-1.46,10.61-3.47,14-6.14.85-8.46,1.28-18.14,1.37-22.06h0a1.22,1.22,0,0,1,0-.27v-.68c0-5.55-8.07-9-16.49-7.16a1.05,1.05,0,0,0-.34.08c-.24,0-.45.12-.69.19l-.3.11c-.19.08-.39.16-.56.25a4.08,4.08,0,0,0-.5.29,4.37,4.37,0,0,0-.44.31,5.11,5.11,0,0,0-.73.74c-.1.13-.2.26-.29.4a6.13,6.13,0,0,0-.83,2.41,14.54,14.54,0,0,0,0,3.61,5.41,5.41,0,0,0,.07.68c.05.44.11.89.17,1.37l.1.79a3.2,3.2,0,0,0,.08.54c0,.32.09.64.12,1h0c.08.57.13,1.12.17,1.66v1.54a2.13,2.13,0,0,1-.05.57,6.31,6.31,0,0,1-.14.87,4.62,4.62,0,0,1-.93,2.29,1.42,1.42,0,0,1-1.25.29,2.43,2.43,0,0,1-.55-.11h-.11l-.26-.06h-.1l-.47-.14h-.06l-.14,0L25,133.7l-.33-.1-.34-.09a42.54,42.54,0,0,0-4.72-1.11l-.68-.12-.36-.05-.59-.09c-1.31-.19-2.78-.36-4.46-.47a9.52,9.52,0,0,0-3.63.41,5.63,5.63,0,0,0-.77.31,6.83,6.83,0,0,0-1.51,1l-.32.32L7,134c-.09.11-.29.36-.43.56a13.12,13.12,0,0,0-1.92,6.66A1.18,1.18,0,0,1,4.84,142.1Z" transform="translate(-4.68 -4.56)"/>
        <path class="cls-5" d="M4.76,157A6,6,0,0,0,4.84,158Z" transform="translate(-4.68 -4.56)"/>
        <path class="cls-5" d="M34.56,150.6v.5s.09-.19.24-.56c1-2.46,4-12.66-5.26-23.64h0c.08.57.13,1.12.17,1.66v1.54a2.24,2.24,0,0,1-.05.58,6.56,6.56,0,0,1-.14.87,4.71,4.71,0,0,1-.93,2.29,1.41,1.41,0,0,1-1.25.28,2.43,2.43,0,0,1-.55-.11C30.44,138.07,34.6,144.13,34.56,150.6Z" transform="translate(-4.68 -4.56)"/>
      </g>
      <polygon class="cls-6" points="296.39 184.57 408.6 184.57 423.93 178.35 323.9 178.35 296.39 184.57"/>
      <rect class="cls-7" x="45.85" y="38" width="250.54" height="146.57"/>
      <g>
        <path class="cls-8" d="M310.5,42.56V60.27H50a8.86,8.86,0,0,1-8.85-8.86h0A8.85,8.85,0,0,1,50,42.56H310.5Z" transform="translate(-4.68 -4.56)"/>
        <rect class="cls-9" x="45.85" y="55.54" width="250.54" height="6.22"/>
        <rect class="cls-9" x="45.85" y="73.08" width="250.54" height="6.22"/>
        <rect class="cls-9" x="45.85" y="90.63" width="250.54" height="6.22"/>
        <rect class="cls-9" x="45.85" y="108.17" width="250.54" height="6.22"/>
        <rect class="cls-9" x="45.85" y="125.72" width="250.54" height="6.22"/>
        <rect class="cls-9" x="45.85" y="143.26" width="250.54" height="6.22"/>
        <rect class="cls-9" x="45.85" y="160.8" width="250.54" height="6.22"/>
        <rect class="cls-9" x="45.85" y="178.35" width="250.54" height="6.22"/>
      </g>
      <path class="cls-1" d="M328.58,12.46v30.1H304.37l-7.95-38h24.3a7.86,7.86,0,0,1,7.86,7.86Z" transform="translate(-4.68 -4.56)"/>
      <path class="cls-1" d="M296.51,4.6H61.68a7.86,7.86,0,0,0-7.86,7.86h0v30.1H304.36V12.46a7.84,7.84,0,0,0-7.84-7.86Z" transform="translate(-4.68 -4.56)"/>
      <polygon class="cls-10" points="296.39 184.57 296.39 173.38 297.06 173.38 297.06 173.38 315.24 173.38 318.97 173.38 318.97 69.02 323.9 69.02 323.9 184.57 296.39 184.57"/>
      <rect class="cls-11" x="315.24" y="69.02" width="3.72" height="104.36"/>
      <path class="cls-12" d="M438.73,24.18H310.62V88.5H438.73ZM378,95.71H301.07V17H448.28V95.71Z" transform="translate(-4.68 -4.56)"/>
      <rect class="cls-13" x="395.7" y="43.14" width="1.75" height="43.14"/>
      <rect class="cls-14" x="304.2" y="19.62" width="130.57" height="65.78"/>
      <g>
        <path class="cls-15" d="M84.28,10.24A6.65,6.65,0,0,0,83.44,12v-.12a9.09,9.09,0,0,0-1-2.51A9.39,9.39,0,0,0,82.63,12l-.2-.2a10.81,10.81,0,0,0-2.58-1.93,11.06,11.06,0,0,0,1.93,2.59l.2.19a9.39,9.39,0,0,0-2.64-.19,9.09,9.09,0,0,0,2.51.95H82a6.65,6.65,0,0,0-1.79.84,7.79,7.79,0,0,0,2.14-.3h.14a5.59,5.59,0,0,0-.93,1.28,5.5,5.5,0,0,0,1.35-1c.07-.08.14-.15.19-.22a2,2,0,0,0,.13.73,2.22,2.22,0,0,0,.24-.87.91.91,0,0,0,0-.33l1.12,1.12a.08.08,0,0,0,.09,0,.06.06,0,0,0,0-.08l-1.12-1.13a.91.91,0,0,0,.33,0,2.22,2.22,0,0,0,.87-.24,2,2,0,0,0-.73-.13l.21-.19a6.3,6.3,0,0,0,1-1.35,5.59,5.59,0,0,0-1.28.93v-.14A7.36,7.36,0,0,0,84.28,10.24Z" transform="translate(-4.68 -4.56)"/>
        <path class="cls-15" d="M74,30.14a7.5,7.5,0,0,0-.84,1.79v-.12a9.77,9.77,0,0,0-1-2.51,9,9,0,0,0,.18,2.64l-.19-.2a11.37,11.37,0,0,0-2.58-1.93,11.09,11.09,0,0,0,1.92,2.59l.2.19a9.29,9.29,0,0,0-2.63-.19,8.91,8.91,0,0,0,2.5,1h.12a7.5,7.5,0,0,0-1.79.84,7.79,7.79,0,0,0,2.14-.3h.14a5.59,5.59,0,0,0-.93,1.28,5.32,5.32,0,0,0,1.35-1l.2-.22a1.81,1.81,0,0,0,.12.73,2.23,2.23,0,0,0,.25-.87.92.92,0,0,0,0-.33l1,1.1a.06.06,0,0,0,.08,0m0-.08-1.08-1.13a1,1,0,0,0,.34,0,2.22,2.22,0,0,0,.87-.24,2.1,2.1,0,0,0-.74-.13l.22-.19a5.77,5.77,0,0,0,1-1.35,5.65,5.65,0,0,0-1.29.93v-.14A7.17,7.17,0,0,0,74,30.14Z" transform="translate(-4.68 -4.56)"/>
        <path class="cls-15" d="M281.38,32.15a7.5,7.5,0,0,0-.84,1.79v-.12a9,9,0,0,0-1-2.5,8.93,8.93,0,0,0,.18,2.63l-.19-.2a10.87,10.87,0,0,0-2.6-1.87,11,11,0,0,0,1.92,2.58l.2.19a8.93,8.93,0,0,0-2.63-.18,9.34,9.34,0,0,0,2.5,1h.12a7.5,7.5,0,0,0-1.79.84,7.05,7.05,0,0,0,2.14-.3h.14a5.65,5.65,0,0,0-.93,1.29,5.5,5.5,0,0,0,1.35-1l.2-.22a2.24,2.24,0,0,0,.12.73,2.19,2.19,0,0,0,.25-.86,1,1,0,0,0,0-.34l1.13,1.12a.06.06,0,0,0,.08,0,0,0,0,0,0,0-.05l-1.12-1.13a1,1,0,0,0,.34,0,2.23,2.23,0,0,0,.87-.25,1.89,1.89,0,0,0-.74-.12l.22-.2a5.5,5.5,0,0,0,1-1.35,5.65,5.65,0,0,0-1.29.93.23.23,0,0,1,.05-.14A7.36,7.36,0,0,0,281.38,32.15Z" transform="translate(-4.68 -4.56)"/>
        <path class="cls-15" d="M290,12.28a6.65,6.65,0,0,0-.84,1.79V14a9.09,9.09,0,0,0-.95-2.51,9.39,9.39,0,0,0,.19,2.64l-.19-.2A11.06,11.06,0,0,0,285.59,12a11.06,11.06,0,0,0,1.93,2.59l.2.19a9.39,9.39,0,0,0-2.64-.19,9.09,9.09,0,0,0,2.51,1h.12a6.65,6.65,0,0,0-1.79.84,7.79,7.79,0,0,0,2.14-.3h.14a5.65,5.65,0,0,0-.93,1.29,5.77,5.77,0,0,0,1.35-1l.2-.22a1.81,1.81,0,0,0,.12.73,2.17,2.17,0,0,0,.24-.86,1,1,0,0,0,0-.34l1.13,1.12a.06.06,0,0,0,.08,0,0,0,0,0,0,0-.05l-1.12-1.13a1,1,0,0,0,.34,0,2.17,2.17,0,0,0,.86-.24,1.81,1.81,0,0,0-.73-.12L290,15a5.77,5.77,0,0,0,1-1.35,5.65,5.65,0,0,0-1.29.93v-.14A7.38,7.38,0,0,0,290,12.28Z" transform="translate(-4.68 -4.56)"/>
        <path class="cls-15" d="M244.54,12.28a7.5,7.5,0,0,0-.84,1.79V14a9.77,9.77,0,0,0-.95-2.51,9.76,9.76,0,0,0,.18,2.64,1.8,1.8,0,0,0-.19-.2A10.81,10.81,0,0,0,240.16,12a11.31,11.31,0,0,0,1.92,2.59l.2.19a9.29,9.29,0,0,0-2.63-.19,9.09,9.09,0,0,0,2.51,1h.11a7.5,7.5,0,0,0-1.79.84,7.81,7.81,0,0,0,2.15-.3h.13a5.32,5.32,0,0,0-.92,1.29,5.93,5.93,0,0,0,1.34-1,2.09,2.09,0,0,0,.2-.22,2,2,0,0,0,.13.73,2.57,2.57,0,0,0,.24-.86,1,1,0,0,0,0-.34l1.12,1.12a.06.06,0,0,0,.08,0h0a.06.06,0,0,0,0-.08l-1.13-1.13a1,1,0,0,0,.34,0,2.22,2.22,0,0,0,.87-.24,1.89,1.89,0,0,0-.74-.12l.22-.2a5.77,5.77,0,0,0,1-1.35,5.59,5.59,0,0,0-1.28.93v-.14A7.38,7.38,0,0,0,244.54,12.28Z" transform="translate(-4.68 -4.56)"/>
        <path class="cls-15" d="M196.44,9.35a6.65,6.65,0,0,0-.84,1.79V11a9.09,9.09,0,0,0-.95-2.51,9.39,9.39,0,0,0,.19,2.64l-.19-.2A11.06,11.06,0,0,0,192.06,9,11.06,11.06,0,0,0,194,11.61l.2.19a9.39,9.39,0,0,0-2.64-.19,9.09,9.09,0,0,0,2.51,1h.12a6.65,6.65,0,0,0-1.79.84,7.79,7.79,0,0,0,2.14-.3h.14a5.59,5.59,0,0,0-.93,1.28,5.5,5.5,0,0,0,1.35-1l.2-.22a1.81,1.81,0,0,0,.12.73,2.22,2.22,0,0,0,.24-.87.92.92,0,0,0,0-.33l1.13,1.12a.06.06,0,0,0,.08,0,.07.07,0,0,0,0-.08l0,0-1.12-1.13a.92.92,0,0,0,.33,0,2.22,2.22,0,0,0,.87-.24,2,2,0,0,0-.73-.13c.07,0,.14-.12.22-.19a5.5,5.5,0,0,0,1-1.35,5.59,5.59,0,0,0-1.28.93v-.14A7.64,7.64,0,0,0,196.44,9.35Z" transform="translate(-4.68 -4.56)"/>
        <path class="cls-15" d="M142.57,10.24a7.5,7.5,0,0,0-.84,1.79v-.12a9.54,9.54,0,0,0-1-2.51,9.76,9.76,0,0,0,.18,2.64l-.19-.2a11.37,11.37,0,0,0-2.58-1.93,11.31,11.31,0,0,0,1.92,2.59l.2.19a9.29,9.29,0,0,0-2.63-.19,9,9,0,0,0,2.51.95h.11a7.5,7.5,0,0,0-1.79.84,7.79,7.79,0,0,0,2.14-.3h.14a5.27,5.27,0,0,0-.92,1.28,5.27,5.27,0,0,0,1.34-1l.2-.22a2.28,2.28,0,0,0,.12.73,2.23,2.23,0,0,0,.25-.87.92.92,0,0,0,0-.33l1.12,1.12a.07.07,0,0,0,.09,0,.06.06,0,0,0,0-.08l-1.13-1.13a1,1,0,0,0,.34,0,2.22,2.22,0,0,0,.87-.24,2.1,2.1,0,0,0-.74-.13c.07,0,.14-.12.22-.19a6.3,6.3,0,0,0,1-1.35,5.88,5.88,0,0,0-1.29.93l0-.14A7.32,7.32,0,0,0,142.57,10.24Z" transform="translate(-4.68 -4.56)"/>
      </g>
      <rect class="cls-16" x="64.93" y="69.02" width="2.45" height="115.55"/>
      <path class="cls-17" d="M74.67,136.56V150.4h51.67V136.56Zm.18-60.15v55h51.7v-55ZM72.06,189.13V73.59H127.9V189.13Z" transform="translate(-4.68 -4.56)"/>
      <rect class="cls-18" x="70.17" y="71.85" width="1.37" height="54.95"/>
      <rect class="cls-19" x="71.54" y="71.85" width="50.34" height="54.95"/>
      <rect class="cls-18" x="69.99" y="131.99" width="1.55" height="13.84"/>
      <rect class="cls-19" x="71.54" y="131.99" width="50.13" height="13.84"/>
      <polygon class="cls-20" points="142.62 173.38 149.62 173.38 149.62 77.07 296.39 77.07 296.39 69.02 142.62 69.02 142.62 173.38"/>
      <polygon class="cls-21" points="315.24 69.02 315.24 173.69 299.6 173.69 296.39 173.69 296.39 69.02 299.02 69.02 315.24 69.02"/>
      <path class="cls-22" d="M69.61,189.13H84.77V150.44h3.51V141h38.06v-4.41H84.77v-5.2H89V96.06c13.39,3,21.89,2.59,35.44,0l3.5-1.73V73.59H69.61Z" transform="translate(-4.68 -4.56)"/>
      <path class="cls-23" d="M112.07,171.47c-.11-.19-4.48,1.13-7.8,2.81l.28-.41c2.56-4,4.86-10.08,4.61-10.24S104.48,168,101.9,172v-1.17c0-5.72-1.6-13.34-2-13.34s-2,7.62-2,13.34V172c-2.58-4-7-8.51-7.26-8.35s2,6.22,4.61,10.24l.28.41c-3.32-1.68-7.69-3-7.8-2.81s3.85,3.61,7.22,5.47l.54.28A24.7,24.7,0,0,0,89,178.28c0,.19,4,1,7,1a6.74,6.74,0,0,0,1.23-.07,8.47,8.47,0,0,0-1.81,2.55,9.64,9.64,0,0,0,3.29-1.85,3.85,3.85,0,0,0,.91-1.1v6.66a.25.25,0,0,0,.5,0v-6.66a3.85,3.85,0,0,0,.91,1.1,9.48,9.48,0,0,0,3.29,1.85,8.83,8.83,0,0,0-1.81-2.55c.37,0,.77.06,1.23.07,3,0,7-.79,7-1a24.38,24.38,0,0,0-6.56-1.06l.55-.28C108.21,175.08,112.18,171.68,112.07,171.47Z" transform="translate(-4.68 -4.56)"/>
      <rect class="cls-16" x="139.98" y="69.02" width="2.63" height="104.36"/>
      <path class="cls-24" d="M123.88,134a3.64,3.64,0,0,1-6.08,2.7,4,4,0,0,0,.69.06,3.64,3.64,0,0,0,3.64-3.64h0a3.61,3.61,0,0,0-1.21-2.7A3.64,3.64,0,0,1,123.88,134Z" transform="translate(-4.68 -4.56)"/>
      <path class="cls-25" d="M122.13,133.07a3.64,3.64,0,0,1-3.63,3.65h0a4,4,0,0,1-.69-.06,3.64,3.64,0,0,1,2.42-6.35h0a3.82,3.82,0,0,1,.68.06A3.61,3.61,0,0,1,122.13,133.07Z" transform="translate(-4.68 -4.56)"/>
      <g>
        <rect class="cls-22" x="44.69" y="160.11" width="9.28" height="24.46"/>
        <g>
          <rect class="cls-26" x="37.73" y="161.97" width="13.93" height="1.86"/>
          <path class="cls-27" d="M42.41,164.68v22.25H56.34V164.68Zm13.18,3.72H43.16v-1.86H55.59Z" transform="translate(-4.68 -4.56)"/>
          <rect class="cls-26" x="39.45" y="182.37" width="10.48" height="2.2"/>
          <polygon class="cls-22" points="49.93 183.47 39.46 182.92 39.46 182.37 49.93 182.37 49.93 183.47"/>
        </g>
      </g>
      <path class="cls-5" d="M127.9,73.37l-7.06,19q-4.62.64-9,1.07l-2.12.2c-2.63.23-5.2.4-7.72.53l-2.1.08c-2.59.1-5.12.14-7.61.12H90.23c-2.53,0-5-.12-7.51-.25l-2-.13q-3.72-.22-7.42-.6l-2-.2c-2.24-.23-4.5-.5-6.76-.8l5.1-19Z" transform="translate(-4.68 -4.56)"/>
      <polygon class="cls-28" points="116.16 87.79 123.22 88 123.22 68.81 116.16 87.79"/>
      <path class="cls-29" d="M78.66,73.37l-5.37,20-2-.2,5.32-19.78Z" transform="translate(-4.68 -4.56)"/>
      <path class="cls-29" d="M88.28,73.37,82.71,94.08l-2-.13,5.57-20.58Z" transform="translate(-4.68 -4.56)"/>
      <path class="cls-29" d="M98,73.37l-5.64,21H90.25l5.63-21Z" transform="translate(-4.68 -4.56)"/>
      <path class="cls-29" d="M107.6,73.37,102,94.15l-2.1.08,5.61-20.86Z" transform="translate(-4.68 -4.56)"/>
      <path class="cls-29" d="M117.28,73.37l-5.39,20-2.12.2,5.44-20.25Z" transform="translate(-4.68 -4.56)"/>
      <rect class="cls-22" x="45.85" y="55.54" width="250.54" height="3.66"/>
      <path class="cls-30" d="M274.5,4.6,87.39,14.11A35.45,35.45,0,0,0,56.18,36.56l-2.36,6V12.46A7.86,7.86,0,0,1,61.68,4.6H274.5Z" transform="translate(-4.68 -4.56)"/>
    </g>
  </g>
  <g id="Textos">
    <text class="cls-31" transform="translate(328.22 76.19)">“Combo Raw”</text>
    <text class="cls-32" transform="translate(318.66 43.11)">Combo del día</text>
    <text class="cls-33" transform="translate(88.74 27.01)">Cannabis Shop</text>
  </g>
  <g id="Contenedor-producto">
    <rect class="cls-34" x="127.08" y="38" width="188.16" height="146.57"/>
  </g>
  <g id="Boton-ver">
    <rect class="cls-1" x="80.53" y="191.05" width="254.45" height="33.84" rx="10"/>
    <text x="-4.68" y="-4.56"/>    <text class="cls-35" transform="translate(146.65 215.2)">Ver combo</text>
  </g>
  <g id="Producto">
    <image width="1322" height="1113" transform="translate(127.08 37.29) scale(0.14 0.13)" xlink:href="../../combo%20raw.jpg"/>
  </g>
</svg>
