<svg id="Capa_1" data-name="Capa 1" xmlns="http://www.w3.org/2000/svg" xmlns:xlink="http://www.w3.org/1999/xlink" viewBox="0 0 306.44 317.48">
  <defs>
    <style>
      .cls-1 {
        fill: url(#Degradado_sin_nombre);
      }

      .cls-2 {
        fill: url(#Degradado_sin_nombre_2);
      }

      .cls-3 {
        fill: url(#Degradado_sin_nombre_3);
      }

      .cls-25, .cls-4 {
        fill: #388321;
      }

      .cls-5 {
        fill: #936c51;
      }

      .cls-6 {
        fill: #b4654b;
      }

      .cls-7 {
        fill: #e89751;
      }

      .cls-8 {
        fill: #392c45;
      }

      .cls-9 {
        fill: #a6a229;
      }

      .cls-10 {
        fill: #9f7558;
      }

      .cls-11 {
        fill: #853429;
      }

      .cls-12 {
        fill: #85322e;
      }

      .cls-13 {
        fill: #8e78a5;
      }

      .cls-14 {
        fill: #b7746b;
      }

      .cls-15 {
        fill: #5f3540;
      }

      .cls-16 {
        fill: #a15b52;
      }

      .cls-17 {
        fill: #71281e;
      }

      .cls-18 {
        fill: #f1bf52;
      }

      .cls-19 {
        fill: #f1e265;
      }

      .cls-20 {
        fill: #8a2f00;
      }

      .cls-21 {
        fill: url(#Degradado_sin_nombre_11);
      }

      .cls-22 {
        fill: #81a61c;
      }

      .cls-23 {
        fill: #857e1d;
      }

      .cls-24 {
        fill: #b4bd38;
      }

      .cls-25 {
        opacity: 0.46;
      }

      .cls-25, .cls-26, .cls-27, .cls-28, .cls-30, .cls-31 {
        isolation: isolate;
      }

      .cls-26 {
        font-size: 20px;
        fill: #f8fff9;
      }

      .cls-26, .cls-27, .cls-28, .cls-30 {
        font-family: ComicSansMS, Comic Sans MS;
      }

      .cls-27 {
        font-size: 22px;
        fill: #fffbc4;
      }

      .cls-28 {
        font-size: 26px;
      }

      .cls-28, .cls-30 {
        fill: #fff;
      }

      .cls-29 {
        fill: #cfffbb;
      }

      .cls-30 {
        font-size: 24px;
      }
    </style>
    <linearGradient id="Degradado_sin_nombre" data-name="Degradado sin nombre" x1="18.12" y1="749.67" x2="226.65" y2="854.57" gradientTransform="translate(-4.68 -606.56)" gradientUnits="userSpaceOnUse">
      <stop offset="0" stop-color="#dbc956"/>
      <stop offset="1" stop-color="#c5b44f"/>
    </linearGradient>
    <linearGradient id="Degradado_sin_nombre_2" data-name="Degradado sin nombre 2" x1="16.99" y1="808.04" x2="278.84" y2="812.7" gradientTransform="translate(-4.68 -662.72)" gradientUnits="userSpaceOnUse">
      <stop offset="0" stop-color="#ede1ab"/>
      <stop offset="1" stop-color="#e3d081"/>
    </linearGradient>
    <linearGradient id="Degradado_sin_nombre_3" data-name="Degradado sin nombre 3" x1="139.33" y1="882.9" x2="139.33" y2="739.57" gradientTransform="translate(-4.68 -606.56)" gradientUnits="userSpaceOnUse">
      <stop offset="0" stop-color="#edda85"/>
      <stop offset="1" stop-color="#e3d081"/>
    </linearGradient>
    <linearGradient id="Degradado_sin_nombre_11" data-name="Degradado sin nombre 11" x1="5.94" y1="934.68" x2="19.87" y2="934.68" gradientTransform="translate(-4.68 -662.72)" gradientUnits="userSpaceOnUse">
      <stop offset="0" stop-color="#ea9e52"/>
      <stop offset="1" stop-color="#e34f00"/>
    </linearGradient>
  </defs>
  <g id="Tienda">
    <g id="Layer_1" data-name="Layer 1">
      <rect class="cls-1" x="9.38" y="130.8" width="250.54" height="146.57"/>
      <g>
        <path class="cls-2" d="M269.35,138.72v17.71H8.85A8.86,8.86,0,0,1,0,147.57H0a8.85,8.85,0,0,1,8.85-8.85Z" transform="translate(0 -7.92)"/>
        <rect class="cls-3" x="9.38" y="148.34" width="250.54" height="6.22"/>
        <rect class="cls-3" x="9.38" y="165.88" width="250.54" height="6.22"/>
        <rect class="cls-3" x="9.38" y="183.43" width="250.54" height="6.22"/>
        <rect class="cls-3" x="9.38" y="200.97" width="250.54" height="6.22"/>
        <rect class="cls-3" x="9.38" y="218.52" width="250.54" height="6.22"/>
        <rect class="cls-3" x="9.38" y="236.06" width="250.54" height="6.22"/>
        <rect class="cls-3" x="9.38" y="253.6" width="250.54" height="6.22"/>
        <rect class="cls-3" x="9.38" y="271.15" width="250.54" height="6.22"/>
      </g>
      <path class="cls-4" d="M306.44,108.62v30.1H267.92l-12.65-38h38.66c6.91,0,12.51,3.52,12.51,7.86Z" transform="translate(0 -7.92)"/>
      <path class="cls-4" d="M270.43,100.76H21a8.12,8.12,0,0,0-8.35,7.86h0v30.1h266.1v-30.1a8.09,8.09,0,0,0-8.31-7.86h0Z" transform="translate(0 -7.92)"/>
      <polygon class="cls-5" points="259.92 277.37 259.92 266.18 260.59 266.18 260.59 266.18 278.77 266.18 282.5 266.18 282.5 161.82 287.43 161.82 287.43 277.37 259.92 277.37"/>
      <rect class="cls-6" x="278.77" y="161.82" width="3.72" height="104.36"/>
      <path class="cls-7" d="M239.2,16.39H58.06V92.26H239.2Zm-85.87,84.37H44.56V7.92H252.7v92.84Z" transform="translate(0 -7.92)"/>
      <rect class="cls-8" x="56.32" y="7.61" width="184.61" height="77.59"/>
      <g>
        <path class="cls-9" d="M43.13,106.4a6.78,6.78,0,0,0-.84,1.76V108a9.09,9.09,0,0,0-1-2.51,9.29,9.29,0,0,0,.19,2.63l-.2-.2A10.81,10.81,0,0,0,38.7,106a10.86,10.86,0,0,0,1.93,2.59l.2.19a9.39,9.39,0,0,0-2.64-.19,9.09,9.09,0,0,0,2.51.95h.15a6.52,6.52,0,0,0-1.79.84,7.79,7.79,0,0,0,2.14-.3h.14a5.59,5.59,0,0,0-.93,1.28,5.5,5.5,0,0,0,1.35-1c.07-.08.14-.15.19-.22a2,2,0,0,0,.13.73,2.22,2.22,0,0,0,.24-.87.91.91,0,0,0,0-.33l1.12,1.12a.08.08,0,0,0,.09,0,.06.06,0,0,0,0-.08l-1.12-1.13a.91.91,0,0,0,.33,0,2.22,2.22,0,0,0,.87-.24,2,2,0,0,0-.73-.13l.21-.19a6.3,6.3,0,0,0,1-1.35,5.59,5.59,0,0,0-1.28.93v-.14A7.41,7.41,0,0,0,43.13,106.4Z" transform="translate(0 -7.92)"/>
        <path class="cls-9" d="M32.85,126.3a7.5,7.5,0,0,0-.84,1.79V128a9.9,9.9,0,0,0-1-2.51,9,9,0,0,0,.18,2.64l-.19-.2A11.37,11.37,0,0,0,28.42,126a11.31,11.31,0,0,0,1.92,2.59l.2.19a9.29,9.29,0,0,0-2.63-.19,8.73,8.73,0,0,0,2.5,1h.12a7.5,7.5,0,0,0-1.79.84,7.79,7.79,0,0,0,2.14-.3H31a5.59,5.59,0,0,0-.93,1.28,5.32,5.32,0,0,0,1.35-1l.2-.22a1.81,1.81,0,0,0,.12.73A2.23,2.23,0,0,0,32,130a.92.92,0,0,0,0-.33l1,1.1a.06.06,0,0,0,.08,0m0-.08L32,129.58a1,1,0,0,0,.34,0,2.22,2.22,0,0,0,.87-.24,2.1,2.1,0,0,0-.74-.13l.22-.19a5.77,5.77,0,0,0,1-1.35,5.65,5.65,0,0,0-1.29.93v-.14a6.93,6.93,0,0,0,.44-2.16Z" transform="translate(0 -7.92)"/>
        <path class="cls-9" d="M240.23,128.31a7.5,7.5,0,0,0-.84,1.79V130a9,9,0,0,0-1-2.5,8.93,8.93,0,0,0,.18,2.63l-.19-.2a10.87,10.87,0,0,0-2.6-1.87,11,11,0,0,0,1.92,2.58l.2.19a8.93,8.93,0,0,0-2.63-.18,9.34,9.34,0,0,0,2.5,1h.12a7.5,7.5,0,0,0-1.79.84,7.05,7.05,0,0,0,2.14-.3h.14a5.65,5.65,0,0,0-.93,1.29,5.5,5.5,0,0,0,1.35-1l.2-.22a2.24,2.24,0,0,0,.12.73,2.19,2.19,0,0,0,.25-.86,1,1,0,0,0,0-.34l1.13,1.12a.06.06,0,0,0,.08,0m0,0-1.12-1.13a1,1,0,0,0,.34,0,2.23,2.23,0,0,0,.87-.25,1.89,1.89,0,0,0-.74-.12l.22-.2a5.5,5.5,0,0,0,1-1.35,5.65,5.65,0,0,0-1.29.93.24.24,0,0,1,0-.14,7.6,7.6,0,0,0,.32-2.27Z" transform="translate(0 -7.92)"/>
        <path class="cls-9" d="M248.85,108.44a6.52,6.52,0,0,0-.84,1.79v-.07a9.09,9.09,0,0,0-.95-2.51,9.39,9.39,0,0,0,.19,2.64l-.19-.2a11,11,0,0,0-2.62-1.93,10.86,10.86,0,0,0,1.93,2.59l.2.19a9.39,9.39,0,0,0-2.64-.19,9.09,9.09,0,0,0,2.51,1h.12a6.52,6.52,0,0,0-1.79.84,7.79,7.79,0,0,0,2.14-.3h.14a5.65,5.65,0,0,0-.93,1.29,5.77,5.77,0,0,0,1.35-1l.2-.22a1.81,1.81,0,0,0,.12.73,2.17,2.17,0,0,0,.24-.86,1,1,0,0,0,0-.34l1.13,1.12a.06.06,0,0,0,.08,0m0-.05-1.12-1.13a1,1,0,0,0,.34,0,2.17,2.17,0,0,0,.86-.24,1.81,1.81,0,0,0-.73-.12l.26-.31a5.77,5.77,0,0,0,1-1.35,5.65,5.65,0,0,0-1.29.93v-.14a7.5,7.5,0,0,0,.29-2.16Z" transform="translate(0 -7.92)"/>
        <path class="cls-9" d="M203.39,108.44a7.5,7.5,0,0,0-.84,1.79v-.07a9.77,9.77,0,0,0-1-2.51,9.76,9.76,0,0,0,.18,2.64,1.8,1.8,0,0,0-.19-.2,10.81,10.81,0,0,0-2.58-1.93,11.31,11.31,0,0,0,1.92,2.59l.2.19a9.29,9.29,0,0,0-2.63-.19,9.09,9.09,0,0,0,2.51,1h.11a7.5,7.5,0,0,0-1.79.84,7.81,7.81,0,0,0,2.15-.3h.13a5.32,5.32,0,0,0-.92,1.29,6.24,6.24,0,0,0,1.34-1,2.09,2.09,0,0,0,.2-.22,2,2,0,0,0,.13.73,2.57,2.57,0,0,0,.24-.86,1,1,0,0,0,0-.34l1.12,1.12a.06.06,0,0,0,.08,0h0a.06.06,0,0,0,0-.08l-1.13-1.13a1,1,0,0,0,.34,0,2.22,2.22,0,0,0,.87-.24,1.89,1.89,0,0,0-.74-.12l.22-.2a5.77,5.77,0,0,0,1-1.35,5.59,5.59,0,0,0-1.28.93v-.14A7.39,7.39,0,0,0,203.39,108.44Z" transform="translate(0 -7.92)"/>
        <path class="cls-9" d="M155.29,105.51a6.52,6.52,0,0,0-.84,1.79v-.14a9.09,9.09,0,0,0-.95-2.51,9.39,9.39,0,0,0,.19,2.64l-.19-.2a10.86,10.86,0,0,0-2.59-1.93,11,11,0,0,0,1.94,2.61l.2.19a9.39,9.39,0,0,0-2.64-.19,9.09,9.09,0,0,0,2.51,1H153a6.52,6.52,0,0,0-1.79.84,7.79,7.79,0,0,0,2.14-.3h.14a5.59,5.59,0,0,0-.93,1.28,5.5,5.5,0,0,0,1.35-1l.2-.22a1.81,1.81,0,0,0,.12.73,2.22,2.22,0,0,0,.24-.87.91.91,0,0,0,0-.33l1.13,1.12a.06.06,0,1,0,.08-.08h0l-1.12-1.13a.91.91,0,0,0,.33,0,2.22,2.22,0,0,0,.87-.24,2,2,0,0,0-.73-.13c.07,0,.14-.12.22-.19a5.5,5.5,0,0,0,1-1.35,5.59,5.59,0,0,0-1.28.93v-.14A7.63,7.63,0,0,0,155.29,105.51Z" transform="translate(0 -7.92)"/>
        <path class="cls-9" d="M101.42,106.4a7.5,7.5,0,0,0-.84,1.79v-.12a9.41,9.41,0,0,0-1-2.51,9.76,9.76,0,0,0,.18,2.64l-.19-.2A11.37,11.37,0,0,0,97,106.07a11.31,11.31,0,0,0,1.92,2.59l.2.19a9.29,9.29,0,0,0-2.63-.19,9,9,0,0,0,2.51,1h.11a7.5,7.5,0,0,0-1.79.84,7.79,7.79,0,0,0,2.14-.3h.14a5.27,5.27,0,0,0-.92,1.28,5.27,5.27,0,0,0,1.34-1l.2-.22a2.28,2.28,0,0,0,.12.73,2.23,2.23,0,0,0,.25-.87.92.92,0,0,0,0-.33l1.12,1.12a.08.08,0,0,0,.09,0,.06.06,0,0,0,0-.08l-1.13-1.13a1,1,0,0,0,.34,0,2.22,2.22,0,0,0,.87-.24,2.1,2.1,0,0,0-.74-.13c.07,0,.14-.12.22-.19a6.3,6.3,0,0,0,1-1.35,5.88,5.88,0,0,0-1.29.93v-.14A7.37,7.37,0,0,0,101.42,106.4Z" transform="translate(0 -7.92)"/>
      </g>
      <rect class="cls-10" x="28.46" y="161.82" width="2.45" height="115.55"/>
      <path class="cls-11" d="M33.52,232.72v13.84H85.19V232.72Zm.18-60.15v55H85.4v-55ZM30.91,285.29V169.75H86.75V285.29Z" transform="translate(0 -7.92)"/>
      <rect class="cls-12" x="33.7" y="164.65" width="1.37" height="54.95"/>
      <rect class="cls-13" x="35.07" y="164.65" width="50.34" height="54.95"/>
      <rect class="cls-12" x="33.52" y="224.79" width="1.55" height="13.84"/>
      <rect class="cls-13" x="35.07" y="224.79" width="50.13" height="13.84"/>
      <polygon class="cls-14" points="106.15 266.18 113.15 266.18 113.15 169.87 259.92 169.87 259.92 161.82 106.15 161.82 106.15 266.18"/>
      <polygon class="cls-15" points="278.77 161.82 278.77 266.49 263.13 266.49 259.92 266.49 259.92 161.82 262.55 161.82 278.77 161.82"/>
      <path class="cls-16" d="M28.46,285.29H43.62V246.6h3.51v-9.44H85.19v-4.41H43.62v-5.2h4.23V192.22c13.39,3,21.89,2.59,35.44,0l3.5-1.73V169.75H28.46Z" transform="translate(0 -7.92)"/>
      <path class="cls-17" d="M70.92,267.63c-.11-.19-4.48,1.13-7.8,2.81l.28-.41C66,266,68.26,260,68,259.79s-4.68,4.37-7.26,8.37V267c0-5.72-1.6-13.34-2-13.34s-2,7.62-2,13.34v1.17c-2.58-4-7-8.51-7.26-8.35s2,6.22,4.61,10.24l.28.41c-3.32-1.68-7.69-3-7.8-2.81s3.85,3.61,7.22,5.47l.54.28a25.06,25.06,0,0,0-6.49,1c0,.19,4,1,7,1a7.25,7.25,0,0,0,1.23-.07,8.47,8.47,0,0,0-1.81,2.55,9.48,9.48,0,0,0,3.29-1.85,3.85,3.85,0,0,0,.91-1.1v6.66a.25.25,0,0,0,.5,0V275a3.85,3.85,0,0,0,.91,1.1,9.48,9.48,0,0,0,3.29,1.85,9,9,0,0,0-1.81-2.55c.37,0,.77.06,1.23.07,3,0,7-.79,7-1A24.38,24.38,0,0,0,63,273.38l.55-.28C67.06,271.24,71,267.84,70.92,267.63Z" transform="translate(0 -7.92)"/>
      <rect class="cls-10" x="103.51" y="161.82" width="2.63" height="104.36"/>
      <path class="cls-18" d="M82.73,230.16a3.64,3.64,0,0,1-6.08,2.7,4,4,0,0,0,.69.06A3.64,3.64,0,0,0,81,229.28h0a3.62,3.62,0,0,0-1.21-2.7A3.64,3.64,0,0,1,82.73,230.16Z" transform="translate(0 -7.92)"/>
      <path class="cls-19" d="M81,229.23a3.64,3.64,0,0,1-3.63,3.65h0a4,4,0,0,1-.69-.06,3.64,3.64,0,0,1,2.42-6.35h0a3.82,3.82,0,0,1,.68.06A3.62,3.62,0,0,1,81,229.23Z" transform="translate(0 -7.92)"/>
      <g>
        <rect class="cls-16" x="8.22" y="252.91" width="9.28" height="24.46"/>
        <g>
          <rect class="cls-20" x="1.26" y="254.77" width="13.93" height="1.86"/>
          <path class="cls-21" d="M1.26,260.84v22.25H15.19V260.84Zm13.18,3.72H2V262.7H14.44Z" transform="translate(0 -7.92)"/>
          <rect class="cls-20" x="2.98" y="275.17" width="10.48" height="2.2"/>
          <polygon class="cls-16" points="13.46 276.27 2.99 275.72 2.99 275.17 13.46 275.17 13.46 276.27"/>
        </g>
      </g>
      <path class="cls-22" d="M86.75,169.53l-7.06,19c-3.08.43-6.08.78-9,1.07l-2.12.2c-2.63.23-5.2.4-7.72.53l-2.1.08c-2.59.1-5.12.14-7.61.12H49.08c-2.53,0-5-.12-7.51-.25l-2-.13q-3.72-.22-7.42-.6l-2-.2c-2.24-.23-4.5-.5-6.76-.8l5.1-19Z" transform="translate(0 -7.92)"/>
      <polygon class="cls-23" points="79.69 180.59 86.75 180.8 86.75 161.61 79.69 180.59"/>
      <path class="cls-24" d="M37.51,169.53l-5.37,20-2-.2,5.32-19.78Z" transform="translate(0 -7.92)"/>
      <path class="cls-24" d="M47.13,169.53l-5.57,20.71-2-.13,5.57-20.58Z" transform="translate(0 -7.92)"/>
      <path class="cls-24" d="M56.85,169.53l-5.64,21H49.1l5.63-21Z" transform="translate(0 -7.92)"/>
      <path class="cls-24" d="M66.45,169.53l-5.6,20.78-2.1.08,5.61-20.86Z" transform="translate(0 -7.92)"/>
      <path class="cls-24" d="M76.13,169.53l-5.39,20-2.12.2,5.44-20.25Z" transform="translate(0 -7.92)"/>
      <rect class="cls-16" x="9.38" y="148.34" width="250.54" height="3.66"/>
      <path class="cls-25" d="M233.35,100.76,46.24,110.27A35.45,35.45,0,0,0,15,132.72l-2.36,6v-30.1a7.86,7.86,0,0,1,7.86-7.86H233.35Z" transform="translate(0 -7.92)"/>
    </g>
  </g>
  <g id="Textos">
    <text class="cls-26" transform="translate(94.06 62.48)">“Combo Raw”</text>
    <text class="cls-27" transform="translate(76.32 29.4) scale(1.1 1)">Combo del día</text>
    <text class="cls-28" transform="translate(52.97 115.54)">Cannabis Shop</text>
  </g>
  <g id="Contenedor-producto">
    <rect class="cls-29" x="124.45" y="125.76" width="181.99" height="150.86"/>
  </g>
  <g id="Boton-ver">
    <rect class="cls-4" x="29.07" y="283.64" width="254.45" height="33.84" rx="10"/>
    <text class="cls-30" transform="translate(95.19 307.79)">Ver combo</text>
  </g>
  <g id="Producto">
    <image class="cls-31" width="1322" height="1113" transform="translate(101.48 125.66) scale(0.15 0.14)" xlink:href="../../combo%20raw.jpg"/>
  </g>
</svg>
