<svg xmlns="http://www.w3.org/2000/svg" xmlns:xlink="http://www.w3.org/1999/xlink" viewBox="0 0 360 632">
  <defs>
    <style>
      .a6659f80-c209-4bef-95dc-dd2e0fd6d2af, .aec2e71c-a97f-49a9-809e-0ac13d78d69b, .efa87712-205c-4cd0-91cd-2e9d1e9f971d {
        fill: #fff;
      }

      .ffff8acb-9f86-4e78-974a-d9aa7de3b931 {
        fill: #169a00;
      }

      .bfeb0313-d199-4e53-be46-c0625923963d {
        fill: #9e9e9e;
      }

      .eb7c4729-e31d-48b4-a780-3b04696e694b {
        font-size: 41px;
      }

      .a1803540-80f4-4717-9018-54cf33252226, .aec2e71c-a97f-49a9-809e-0ac13d78d69b, .b06f0b4f-9b97-4524-aea2-9bb3af7bd5e7, .eb7c4729-e31d-48b4-a780-3b04696e694b, .efa87712-205c-4cd0-91cd-2e9d1e9f971d {
        font-family: Rockwell;
      }

      .efa87712-205c-4cd0-91cd-2e9d1e9f971d {
        font-size: 23px;
      }

      .adad19a3-d5af-4ad4-81e6-da2d389be2aa {
        letter-spacing: -0.05em;
      }

      .a1803540-80f4-4717-9018-54cf33252226 {
        font-size: 21px;
      }

      .a906fe84-e21a-4de8-8ced-3cf3d080ffb0 {
        letter-spacing: -0.02em;
      }

      .f5316b5f-c080-4a76-b585-7c0f6110d00d {
        letter-spacing: 0em;
      }

      .aec2e71c-a97f-49a9-809e-0ac13d78d69b {
        font-size: 27px;
      }

      .b06f0b4f-9b97-4524-aea2-9bb3af7bd5e7 {
        font-size: 17px;
      }

      .b4dfc1b3-6e62-4ef7-bd34-fd0c219fabc8 {
        letter-spacing: -0.02em;
      }
    </style>
  </defs>
  <g id="eac8f3ff-0e6a-4077-9ef5-b858bf353610" data-name="Fondo">
    <g>
      <rect class="a6659f80-c209-4bef-95dc-dd2e0fd6d2af" x="0.5" y="44.5" width="359" height="587"/>
      <path class="a6659f80-c209-4bef-95dc-dd2e0fd6d2af" d="M359,46V632H1V46H359m1-1H0V633H360V45Z" transform="translate(0 -1)"/>
    </g>
  </g>
  <g id="f0e62cbf-4ba9-4ad2-883e-19ebe2817a1a" data-name="card">
    <g>
      <rect x="0.5" y="519.5" width="359" height="112"/>
      <path d="M359,521V632H1V521H359m1-1H0V633H360V520Z" transform="translate(0 -1)"/>
    </g>
    <g>
      <rect class="ffff8acb-9f86-4e78-974a-d9aa7de3b931" x="23.5" y="541.5" width="313" height="68" rx="1.5"/>
      <path class="ffff8acb-9f86-4e78-974a-d9aa7de3b931" d="M335,543a1,1,0,0,1,1,1v65a1,1,0,0,1-1,1H25a1,1,0,0,1-1-1V544a1,1,0,0,1,1-1H335m0-1H25a2,2,0,0,0-2,2v65a2,2,0,0,0,2,2H335a2,2,0,0,0,2-2V544a2,2,0,0,0-2-2Z" transform="translate(0 -1)"/>
    </g>
    <g>
      <rect x="0.5" y="391.5" width="359" height="55"/>
      <path d="M359,393v54H1V393H359m1-1H0v56H360V392Z" transform="translate(0 -1)"/>
    </g>
    <rect class="bfeb0313-d199-4e53-be46-c0625923963d" x="27" y="447" width="309" height="56"/>
    <g>
      <rect x="0.5" y="0.5" width="359" height="57"/>
      <path d="M359,2V58H1V2H359m1-1H0V59H360V1Z" transform="translate(0 -1)"/>
    </g>
    <g id="f5b5caf2-cc7e-47e9-bf76-71adababa703" data-name="Capa 16">
      <g>
        <rect class="ffff8acb-9f86-4e78-974a-d9aa7de3b931" x="280.5" y="452.5" width="46" height="43"/>
        <path class="ffff8acb-9f86-4e78-974a-d9aa7de3b931" d="M326,454v42H281V454h45m1-1H280v44h47V453Z" transform="translate(0 -1)"/>
      </g>
    </g>
    <g id="a0c5d0e3-40cc-4b22-8274-699a687a664e" data-name="Capa 15">
      <g>
        <rect class="ffff8acb-9f86-4e78-974a-d9aa7de3b931" x="0.5" y="60.5" width="179" height="37"/>
        <path class="ffff8acb-9f86-4e78-974a-d9aa7de3b931" d="M179,62V98H1V62H179m1-1H0V99H180V61Z" transform="translate(0 -1)"/>
      </g>
      <g>
        <rect class="ffff8acb-9f86-4e78-974a-d9aa7de3b931" x="182.5" y="60.5" width="177" height="37"/>
        <path class="ffff8acb-9f86-4e78-974a-d9aa7de3b931" d="M359,62V98H183V62H359m1-1H182V99H360V61Z" transform="translate(0 -1)"/>
      </g>
    </g>
  </g>
  <g id="f21a9b1d-51db-4323-95f1-a9fc47aa2f39" data-name="stock">
    <text class="eb7c4729-e31d-48b4-a780-3b04696e694b" transform="translate(292.27 485.96)">5</text>
  </g>
  <g id="fe99fd18-c861-4898-a1d6-c75f694e2d90" data-name="img">
    <image width="1322" height="1113" transform="translate(3 102) scale(0.27 0.26)" xlink:href="../../../cannabisshop/assets/img/combo-diario/combo-raw.jpg"/>
  </g>
  <g id="e27e2678-efb7-4375-976a-ddb950241a7d" data-name="texto1">
    <text class="efa87712-205c-4cd0-91cd-2e9d1e9f971d" transform="translate(30.58 31.18)">Consola personal Game B<tspan class="adad19a3-d5af-4ad4-81e6-da2d389be2aa" x="273.85" y="0">o</tspan><tspan x="285.89" y="0">y </tspan></text>
  </g>
  <g id="a6e8d96e-3b1b-458f-bd5b-c6d76359acb6" data-name="check">
    <text class="a1803540-80f4-4717-9018-54cf33252226" transform="translate(45.33 480.1)">Unidades disponi<tspan class="a906fe84-e21a-4de8-8ced-3cf3d080ffb0" x="168.89" y="0">b</tspan><tspan class="f5316b5f-c080-4a76-b585-7c0f6110d00d" x="182.04" y="0">les</tspan></text>
  </g>
  <g id="b9f01aeb-e730-46b9-adba-9632a756adc5" data-name="texto2">
    <text class="aec2e71c-a97f-49a9-809e-0ac13d78d69b" transform="translate(59.76 425.37)">$ 45.000 pesos cop</text>
  </g>
  <g id="f132159d-5e27-46d9-88d9-24d5448e63c7" data-name="comprar">
    <text class="eb7c4729-e31d-48b4-a780-3b04696e694b" transform="translate(72.34 585.92)">COMPRAR</text>
  </g>
  <g id="ace9f368-94df-4ed6-adb0-a89adcbc1a58" data-name="Categoria">
    <path d="M37,82.81h-.72V78a2.2,2.2,0,0,0-.63-1.53L31.19,72a2.13,2.13,0,0,0-1.52-.64h-2V69.16A2.16,2.16,0,0,0,25.53,67H11.16A2.16,2.16,0,0,0,9,69.16V83.53a2.16,2.16,0,0,0,2.16,2.16h.72a4.31,4.31,0,0,0,8.62,0h5.75a4.32,4.32,0,0,0,8.63,0H37a.72.72,0,0,0,.72-.72V83.53A.72.72,0,0,0,37,82.81Zm-20.83,5a2.16,2.16,0,1,1,2.16-2.16A2.16,2.16,0,0,1,16.2,87.86Zm14.38,0a2.16,2.16,0,1,1,2.15-2.16A2.16,2.16,0,0,1,30.58,87.86Zm3.58-9.36H27.69v-5h2L34.16,78Z" transform="translate(0 -1)"/>
  </g>
  <g id="eda4ffe1-6d4b-48d4-a5e3-3e450bfe794a" data-name="texto llega hoy">
    <text class="b06f0b4f-9b97-4524-aea2-9bb3af7bd5e7" transform="translate(50.8 82.22)">Lle<tspan class="b4dfc1b3-6e62-4ef7-bd34-fd0c219fabc8" x="23.57" y="0">g</tspan><tspan x="33.93" y="0">a en 3 dias</tspan></text>
  </g>
  <g id="fc2698b3-5494-430f-87fb-f23ea148af45" data-name="carrito">
    <g>
      <path d="M345.35,88.14a2.19,2.19,0,0,1-1.51-3.76l.88-.86H332.18l.87.86a2.16,2.16,0,0,1,.66,1.57,2.19,2.19,0,0,1-2.19,2.19h-.11a2.2,2.2,0,0,1-1-4.1l.32-.18L327.2,66.58h-3.78a.66.66,0,0,1-.66-.65v-.77a.66.66,0,0,1,.66-.66h4.93A.65.65,0,0,1,329,65l.53,2.56h19.32a.67.67,0,0,1,.52.25.64.64,0,0,1,.12.55l-2.27,10a.65.65,0,0,1-.64.51H331.85l.52,2.54h13.32a.67.67,0,0,1,.52.25.64.64,0,0,1,.12.55L346,83.8l.36.17a2.19,2.19,0,0,1-1,4.17Zm-8.57-11.82a1.27,1.27,0,0,0,1.27,1.27h.77a1.27,1.27,0,0,0,1.27-1.27V74.9h1.81a1.27,1.27,0,0,0,1.27-1.27v-.77a1.27,1.27,0,0,0-1.27-1.27h-1.81V70.16a1.27,1.27,0,0,0-1.27-1.27h-.77a1.27,1.27,0,0,0-1.27,1.27v1.43H335a1.27,1.27,0,0,0-1.27,1.27v.77A1.27,1.27,0,0,0,335,74.9h1.81Z" transform="translate(0 -1)"/>
      <path d="M328.35,65a.14.14,0,0,1,.15.12l.45,2.16.16.8h19.73a.18.18,0,0,1,.13.06.15.15,0,0,1,0,.13l-2.28,10a.16.16,0,0,1-.15.12H331.23l.25,1.2.31,1.54.17.8h13.73a.18.18,0,0,1,.13.06.15.15,0,0,1,0,.13l-.21.89H331.08l-3.31-16.14-.16-.8h-4.19a.16.16,0,0,1-.16-.15v-.77a.16.16,0,0,1,.16-.16h4.93m7.93,6.09H335a1.77,1.77,0,0,0-1.77,1.77v.77A1.77,1.77,0,0,0,335,75.4h1.31v.92a1.77,1.77,0,0,0,1.77,1.77h.77a1.77,1.77,0,0,0,1.77-1.77V75.4h1.31a1.77,1.77,0,0,0,1.77-1.77v-.77a1.77,1.77,0,0,0-1.77-1.77h-1.31v-.93a1.77,1.77,0,0,0-1.77-1.77h-.77a1.77,1.77,0,0,0-1.77,1.77v.93m-5.17,12.08,1.59,1.57a1.67,1.67,0,0,1,.51,1.21,1.69,1.69,0,0,1-1.69,1.69h-.08a1.69,1.69,0,0,1-.77-3.16l.63-.36-.14-.71-.05-.24m14.45.23-.16.67.72.35a1.68,1.68,0,0,1,.95,1.53,1.7,1.7,0,1,1-2.88-1.21l1.37-1.34M328.35,64h-4.93a1.16,1.16,0,0,0-1.16,1.16v.77a1.16,1.16,0,0,0,1.16,1.15h3.37l3.39,16.53a2.7,2.7,0,0,0,1.21,5h.13A2.69,2.69,0,0,0,333.4,84h10.09a2.69,2.69,0,0,0,1.85,4.62h0a2.69,2.69,0,0,0,1.17-5.12l.27-1.17a1.16,1.16,0,0,0-1.13-1.41H332.77l-.31-1.54h14.11a1.16,1.16,0,0,0,1.13-.9l2.27-10a1.15,1.15,0,0,0-1.13-1.41H329.93l-.45-2.16a1.16,1.16,0,0,0-1.13-.92ZM335,74.4a.77.77,0,0,1-.77-.77v-.77a.76.76,0,0,1,.77-.77h2.31V70.16a.77.77,0,0,1,.77-.77h.77a.77.77,0,0,1,.77.77v1.93h2.31a.76.76,0,0,1,.77.77v.77a.77.77,0,0,1-.77.77h-2.31v1.92a.76.76,0,0,1-.77.77h-.77a.76.76,0,0,1-.77-.77V74.4Z" transform="translate(0 -1)"/>
    </g>
  </g>
  <g id="ac5bb496-1782-4a77-a175-3bd9da31e5f8" data-name="texto agregar">
    <text class="b06f0b4f-9b97-4524-aea2-9bb3af7bd5e7" transform="translate(230.34 81.42)">Añadir</text>
  </g>
</svg>
